<svg width="121" height="115" viewBox="0 0 121 115" fill="none" xmlns="http://www.w3.org/2000/svg">
<path d="M59.9435 0C58.7419 0.002 57.5053 0.0156688 57.195 0.0299988C56.8851 0.0443288 56.2801 0.0873276 55.8506 0.125668C55.4213 0.163998 54.6994 0.232673 54.2463 0.278004C53.7935 0.323674 52.9919 0.413344 52.4648 0.477009C51.9381 0.541009 51.1298 0.646347 50.6689 0.711349C50.2078 0.776349 49.4667 0.889022 49.022 0.962021C48.5769 1.03469 47.9255 1.14769 47.5743 1.21303C47.223 1.27803 46.5804 1.4067 46.1458 1.49837C45.7115 1.59004 44.9694 1.76105 44.4971 1.87804C44.0248 1.99538 43.3442 2.17505 42.9846 2.27805C42.6249 2.38072 42.0209 2.56706 41.6418 2.69207C41.2626 2.81673 40.582 3.04941 40.1292 3.20908C39.6765 3.36875 38.9427 3.63442 38.4991 3.79976C38.0554 3.9651 37.2823 4.26244 36.7815 4.46075C36.2803 4.65875 35.5012 4.97809 35.0504 5.16976C34.5994 5.36176 33.9278 5.65644 33.5581 5.82475C33.1884 5.99342 32.4398 6.35243 31.8943 6.62309C31.3491 6.89377 30.6231 7.26945 30.2809 7.45813C29.9391 7.6468 29.3643 7.9738 29.0037 8.18548C28.6434 8.39682 28.0837 8.73449 27.76 8.93586C27.4367 9.1372 26.8165 9.53719 26.3819 9.82455C25.9477 10.1119 25.3803 10.4949 25.1215 10.6759C24.8627 10.8566 24.3864 11.1949 24.0627 11.4276C23.7394 11.6603 23.172 12.0802 22.8023 12.3606C22.4325 12.6409 21.8353 13.1029 21.4746 13.3876C21.1143 13.6719 20.5156 14.1546 20.1449 14.4603C19.7406 14.7936 19.027 15.4436 18.3618 16.084C17.7518 16.671 16.8452 17.5704 16.3471 18.0821C15.849 18.5938 15.2517 19.2141 15.0198 19.4611C14.7882 19.7078 14.4554 20.0671 14.2803 20.2598C14.1052 20.4522 13.7724 20.8272 13.5402 21.0932C13.3083 21.3589 12.9453 21.7865 12.7335 22.0432C12.5217 22.2999 12.1507 22.7722 11.9087 23.0932C11.6667 23.4139 11.2576 23.9689 10.9998 24.3266C10.7417 24.6839 10.3027 25.3066 10.0238 25.71C9.74511 26.1133 9.28326 26.8033 8.99755 27.2433C8.71151 27.6833 8.28832 28.3507 8.05709 28.7267C7.82583 29.1024 7.46215 29.7101 7.24907 30.0767C7.03597 30.4434 6.68372 31.0661 6.46626 31.4601C6.24913 31.8541 5.85689 32.5968 5.59435 33.1101C5.33217 33.6235 4.97754 34.3415 4.80616 34.7059C4.63556 35.0704 4.3472 35.7455 4.16566 36.2065C3.98448 36.667 3.69981 37.4116 3.53344 37.8612C3.36671 38.3103 3.09207 39.0831 2.92268 39.5777C2.75329 40.0723 2.48844 40.8823 2.33417 41.3775C2.17989 41.8721 1.95464 42.6299 1.83398 43.061C1.71331 43.4921 1.53891 44.1444 1.44648 44.5107C1.35404 44.8776 1.2182 45.4399 1.14463 45.7607C1.071 46.0815 0.93486 46.7266 0.842427 47.1942C0.749993 47.6618 0.620622 48.3813 0.555068 48.7944C0.489859 49.2068 0.405835 49.7842 0.369194 50.0774C0.332218 50.3711 0.278775 50.8286 0.25088 51.0942C0.222646 51.3598 0.176595 51.885 0.148702 52.2609C0.120801 52.6368 0.0895448 53.319 0.0791187 53.7777C0.0690353 54.236 0.0455104 54.7061 0.0273604 54.8224C0.00383594 54.9717 0.00484398 55.0467 0.0306876 55.0777C0.0535465 55.1047 0.05522 55.1294 0.0354264 55.1414C0.0162681 55.1531 0.00215159 55.6127 0.000134923 56.2861C-0.00157924 56.9047 0.0132423 58.0411 0.0330762 58.8112C0.0529101 59.5812 0.0683683 60.2412 0.06736 60.2779C0.0663516 60.3146 0.133909 61.0932 0.217604 62.0082C0.301628 62.9232 0.415246 63.966 0.470368 64.325C0.525493 64.6843 0.616241 65.248 0.671701 65.578C0.727492 65.908 0.833705 66.508 0.90799 66.9113C0.982274 67.3147 1.12613 68.0421 1.22764 68.5281C1.32949 69.0137 1.50292 69.7937 1.61351 70.2614C1.72409 70.7288 1.89787 71.4265 1.99971 71.8115C2.10155 72.1965 2.29112 72.8565 2.42087 73.2782C2.55061 73.6999 2.86589 74.6672 3.12134 75.4282C3.37713 76.1889 3.73004 77.1939 3.90548 77.6616C4.08127 78.1293 4.34747 78.8157 4.49739 79.187C4.6473 79.5584 4.88527 80.1283 5.02577 80.4537C5.1666 80.779 5.42541 81.3524 5.6012 81.7284C5.77665 82.1044 6.13865 82.8414 6.40553 83.3667C6.67207 83.8921 7.09155 84.6794 7.33693 85.1168C7.5823 85.5541 7.90935 86.1218 8.06364 86.3785C8.21758 86.6352 8.51807 87.1225 8.73086 87.4619C8.94362 87.8009 9.32881 88.4009 9.58694 88.7952C9.84474 89.1892 10.2985 89.8643 10.5957 90.2953C10.8925 90.7259 11.3543 91.3859 11.6222 91.762C11.89 92.1376 12.2309 92.5953 12.3801 92.7787C12.5293 92.962 12.8715 93.367 13.1407 93.6787C13.4103 93.9903 13.889 94.5227 14.2045 94.862C14.5201 95.2011 15.2075 95.8991 15.7319 96.4128C16.2562 96.9261 16.9275 97.5644 17.2233 97.8308C17.519 98.0971 17.9503 98.4798 18.1812 98.6812C18.4125 98.8822 18.8356 99.2415 19.1217 99.4795C19.408 99.7175 19.9542 100.159 20.3358 100.462C20.7169 100.765 21.4507 101.299 21.9663 101.65C22.4819 102 23.2593 102.517 23.6936 102.797C24.1282 103.077 24.8011 103.505 25.1894 103.747C25.5776 103.988 26.2733 104.411 26.7355 104.686C27.1977 104.961 27.8934 105.366 28.2816 105.586C28.6699 105.806 29.1918 106.099 29.4413 106.236C29.691 106.374 30.1975 106.648 30.5673 106.846C30.937 107.044 31.7084 107.444 32.2815 107.735C32.8546 108.026 33.747 108.468 34.2646 108.717C34.7822 108.967 35.4834 109.298 35.8225 109.452C36.1617 109.607 36.447 109.726 36.4568 109.716C36.4666 109.706 36.3795 109.499 36.2635 109.256C36.1476 109.012 35.8945 108.498 35.7012 108.114C35.5079 107.729 35.1789 107.099 34.9705 106.714C34.7621 106.328 34.4367 105.742 34.2472 105.412C34.0576 105.082 33.6643 104.436 33.3729 103.977C33.0818 103.517 32.5494 102.684 32.1901 102.126C31.8308 101.568 31.2974 100.744 31.0046 100.295C30.7118 99.8461 30.0234 98.7961 29.4746 97.962C28.926 97.1277 27.8377 95.4853 27.0559 94.312C26.2744 93.1386 24.7346 90.8435 23.6345 89.2118C22.5341 87.5801 21.3993 85.8774 21.1126 85.4284C20.8259 84.979 20.3231 84.169 19.9956 83.6284C19.6683 83.0873 19.1856 82.2713 18.9231 81.815C18.6606 81.3583 18.2374 80.6009 17.9826 80.1316C17.7278 79.6623 17.3672 78.9856 17.1809 78.6282C16.9947 78.2709 16.6505 77.5805 16.4159 77.0948C16.1813 76.6088 15.8566 75.9188 15.6943 75.5615C15.5319 75.2041 15.2899 74.6565 15.1568 74.3448C15.0234 74.0331 14.8086 73.5154 14.6792 73.1948C14.5495 72.8738 14.3303 72.3114 14.1915 71.9447C14.053 71.578 13.7831 70.813 13.5919 70.2447C13.4009 69.6763 13.1472 68.8737 13.0278 68.4613C12.9089 68.0486 12.7421 67.4412 12.6578 67.1113C12.5731 66.7813 12.4433 66.2412 12.3694 65.9112C12.2951 65.5812 12.1822 65.0335 12.118 64.6945C12.0538 64.3552 11.9627 63.8302 11.9156 63.5279C11.8689 63.2252 11.8074 62.7979 11.7795 62.5778C11.7516 62.3578 11.7062 61.9601 11.679 61.6945C11.6518 61.4285 11.6145 60.9934 11.5963 60.7278C11.5781 60.4618 11.5543 59.9744 11.5439 59.6444C11.5331 59.3144 11.5136 58.8194 11.5002 58.5444C11.4867 58.2694 11.4783 57.6094 11.4813 57.0777C11.4844 56.546 11.5042 55.796 11.525 55.411C11.5462 55.026 11.5929 54.3583 11.6292 53.9276C11.6659 53.4966 11.7264 52.8816 11.764 52.5609C11.8017 52.2399 11.8773 51.6699 11.9321 51.2942C11.9869 50.9182 12.0854 50.3108 12.1506 49.9442C12.2161 49.5775 12.3361 48.9625 12.4178 48.5775C12.4995 48.1925 12.641 47.5774 12.7327 47.2108C12.8245 46.8441 12.9616 46.3191 13.0379 46.0441C13.1142 45.7691 13.2527 45.2964 13.3458 44.9941C13.4386 44.6917 13.606 44.174 13.7172 43.844C13.8285 43.514 14.0409 42.9213 14.1895 42.5273C14.3377 42.1333 14.5918 41.4956 14.7535 41.1106C14.9155 40.7256 15.1642 40.1556 15.3064 39.8439C15.4486 39.5322 15.7403 38.9272 15.9544 38.4992C16.1686 38.0712 16.5017 37.4339 16.6946 37.0825C16.8878 36.7312 17.1826 36.2112 17.3496 35.9272C17.5167 35.6428 17.8269 35.1331 18.0394 34.7938C18.2514 34.4545 18.6696 33.8171 18.968 33.3771C19.2665 32.9371 19.7203 32.2921 19.9768 31.9437C20.2332 31.5954 20.6715 31.0194 20.9505 30.664C21.2295 30.3083 21.6987 29.731 21.9928 29.3806C22.2873 29.0303 22.6953 28.556 22.8997 28.327C23.104 28.0976 23.7434 27.4003 24.3201 26.7769C25.0771 25.9589 25.5685 25.4622 26.0858 24.9925C26.4801 24.6342 27.075 24.1012 27.4077 23.8078C27.7405 23.5145 28.2322 23.0865 28.5001 22.8568C28.7683 22.6271 29.2523 22.2224 29.5757 21.9578C29.8994 21.6928 30.3454 21.3328 30.5672 21.1578C30.7891 20.9828 31.1521 20.7041 31.3739 20.5388C31.5958 20.3734 31.9134 20.1408 32.0798 20.0217C32.2462 19.9027 32.6092 19.6551 32.8865 19.4714C33.1638 19.2877 33.7311 18.9351 34.1469 18.6877C34.563 18.4403 35.1831 18.08 35.525 17.887C35.8672 17.694 36.4645 17.366 36.8527 17.1583C37.2409 16.9507 38.0879 16.5226 38.735 16.207C39.382 15.8916 40.1913 15.5103 40.5332 15.3593C40.8754 15.2086 41.474 14.9533 41.8635 14.7923C42.2531 14.6313 42.7751 14.4243 43.0231 14.3326C43.2712 14.2406 43.9128 14.0303 44.449 13.8646C44.9851 13.6989 45.7716 13.4646 46.1968 13.3436C46.622 13.2229 47.3103 13.0352 47.7261 12.9266C48.1423 12.8182 48.6791 12.6829 48.9194 12.6259C49.1597 12.5692 49.6515 12.4576 50.0118 12.3776C50.3724 12.2979 50.9018 12.1869 51.1882 12.1312C51.4749 12.0756 51.8453 12.0056 52.0117 11.9756C52.178 11.9456 52.4957 11.8919 52.7175 11.8559C52.9394 11.8199 53.3175 11.7619 53.5578 11.7269C53.7981 11.6919 54.2519 11.6329 54.5662 11.5956C54.8805 11.5582 55.3873 11.5056 55.6922 11.4782C55.9974 11.4509 56.5644 11.4129 56.9526 11.3939C57.3408 11.3745 57.8702 11.3512 58.129 11.3412C58.3879 11.3315 59.4315 11.3155 60.4483 11.3059C61.5359 11.2952 62.7258 11.3033 63.3389 11.3249C63.912 11.3452 64.7062 11.3842 65.1035 11.4112C65.5012 11.4385 66.1364 11.4905 66.5152 11.5272C66.8944 11.5642 67.4994 11.6315 67.8597 11.6772C68.2204 11.7232 68.7723 11.7989 69.0865 11.8459C69.4008 11.8929 69.9907 11.9915 70.3974 12.0649C70.8041 12.1382 71.4545 12.2652 71.8427 12.3472C72.2309 12.4292 72.9183 12.5869 73.3701 12.6976C73.8218 12.8082 74.5781 13.0086 75.0507 13.1429C75.5233 13.2773 76.1747 13.4723 76.498 13.5763C76.8217 13.6803 77.3282 13.8479 77.624 13.9489C77.9198 14.0499 78.4871 14.2533 78.8844 14.401C79.2817 14.5486 79.9324 14.8033 80.3297 14.967C80.727 15.1306 81.2944 15.371 81.5902 15.5006C81.886 15.6303 82.5363 15.9297 83.0355 16.166C83.5346 16.402 84.2758 16.7694 84.6825 16.982C85.0892 17.1947 85.6915 17.5177 86.0209 17.6997C86.35 17.8818 86.8945 18.1921 87.231 18.3901C87.5671 18.5878 88.0992 18.9038 88.4134 19.0921C88.7277 19.2804 89.1882 19.5698 89.4369 19.7348C89.6853 19.8998 90.0863 20.1785 90.3276 20.3541C90.5689 20.5298 90.9326 20.8011 91.136 20.9571C91.3394 21.1128 91.7326 21.4205 92.0099 21.6405C92.2872 21.8605 92.741 22.2278 93.0183 22.4572C93.2956 22.6865 93.7342 23.0542 93.993 23.2745C94.2518 23.4945 94.8266 23.9916 95.2703 24.3786C95.8407 24.8762 96.3092 25.3256 96.8702 25.913C97.3065 26.37 97.815 26.9106 98.0003 27.1143C98.1858 27.3183 98.5676 27.7517 98.8493 28.0773C99.131 28.403 99.6046 28.9714 99.9021 29.34C100.2 29.7087 100.664 30.3054 100.935 30.6661C101.206 31.0264 101.607 31.5781 101.828 31.8918C102.048 32.2054 102.42 32.7561 102.655 33.1155C102.89 33.4748 103.252 34.0482 103.46 34.3899C103.668 34.7312 104.002 35.3029 104.203 35.6606C104.405 36.0179 104.815 36.7979 105.114 37.3939C105.413 37.9896 105.782 38.7546 105.933 39.094C106.084 39.4333 106.321 39.9883 106.459 40.328C106.597 40.6677 106.804 41.1927 106.918 41.4947C107.032 41.7967 107.244 42.3974 107.389 42.8291C107.534 43.2608 107.754 43.9584 107.876 44.3791C107.998 44.7998 108.188 45.5042 108.298 45.9442C108.409 46.3842 108.567 47.0638 108.65 47.4542C108.733 47.8449 108.868 48.5572 108.95 49.0376C109.032 49.5179 109.137 50.1883 109.183 50.5276C109.229 50.8666 109.297 51.4216 109.334 51.761C109.371 52.1 109.424 52.6777 109.453 53.0443C109.481 53.411 109.519 53.996 109.537 54.3444C109.554 54.6927 109.579 55.3151 109.59 55.7277C109.602 56.1401 109.594 57.1708 109.573 58.0181C109.552 58.8655 109.521 59.6068 109.504 59.6655C109.483 59.7352 109.485 59.7872 109.508 59.8139C109.531 59.8423 109.531 59.8622 109.507 59.8769C109.487 59.8892 109.472 60.0229 109.472 60.1905C109.472 60.3742 109.451 60.5426 109.416 60.6439L109.361 60.8049L109.419 60.8469L109.477 60.8889L109.174 62.8166C109.007 63.877 108.854 64.9383 108.833 65.175C108.812 65.4114 108.765 65.7701 108.729 65.9714C108.692 66.1727 108.609 66.5641 108.544 66.8411C108.478 67.1181 108.356 67.5921 108.273 67.8948C108.19 68.1971 108.024 68.7671 107.904 69.1615C107.785 69.5555 107.468 70.5282 107.2 71.3228C106.931 72.1175 106.614 73.0066 106.495 73.2989C106.377 73.5909 106.147 74.1259 105.986 74.4876C105.824 74.849 105.447 75.6323 105.148 76.2283C104.849 76.824 104.429 77.621 104.216 77.9993C104.003 78.3774 103.69 78.9174 103.52 79.1994C103.35 79.481 103.044 79.974 102.841 80.2951C102.637 80.6157 102.297 81.1408 102.084 81.4618C101.872 81.7824 101.461 82.3601 101.171 82.7451C100.88 83.1302 100.425 83.7075 100.158 84.0285C99.8923 84.3492 99.4644 84.8519 99.2079 85.1452C98.9518 85.4385 98.4436 86.0009 98.0793 86.3952C97.7149 86.7892 96.9506 87.5893 96.3812 88.173C95.8115 88.7567 95.0865 89.463 94.7702 89.7427C94.4539 90.0224 93.9141 90.4901 93.5709 90.7817C93.2274 91.0733 92.7508 91.471 92.5121 91.6657C92.2731 91.8604 91.8658 92.1827 91.607 92.3824C91.3482 92.582 90.928 92.8927 90.6736 93.073C90.4191 93.253 90.0436 93.5047 89.839 93.6324C89.6346 93.7597 89.1923 94.0087 88.8565 94.1854C88.5207 94.3617 88.0266 94.6334 87.7584 94.7888C87.4905 94.9441 87.0592 95.2088 86.8005 95.3768C86.5416 95.5451 86.1332 95.8305 85.8929 96.0112C85.6526 96.1915 85.303 96.4712 85.1162 96.6325C84.9293 96.7935 84.6214 97.0875 84.4318 97.2855C84.2426 97.4835 83.9851 97.7805 83.8601 97.9455C83.7351 98.1105 83.5707 98.3466 83.4947 98.4699C83.4188 98.5936 83.3025 98.8009 83.2363 98.9312C83.17 99.0616 83.0645 99.3206 83.0017 99.5069C82.9391 99.6933 82.8625 99.9879 82.8319 100.162C82.7883 100.41 82.7798 100.603 82.7943 101.046C82.8054 101.392 82.8407 101.775 82.8848 102.029C82.9244 102.258 82.9795 102.536 83.0078 102.646C83.0356 102.756 83.1116 102.973 83.1765 103.129C83.2413 103.285 83.3701 103.562 83.4629 103.746C83.5556 103.929 83.715 104.206 83.8175 104.362C83.9197 104.518 84.0904 104.751 84.1966 104.88C84.3028 105.009 84.52 105.237 84.6793 105.386C84.8383 105.536 85.1075 105.75 85.2776 105.863C85.4477 105.976 85.7024 106.126 85.8436 106.196C85.9848 106.267 86.257 106.378 86.4486 106.444C86.6399 106.51 86.981 106.602 87.2066 106.647C87.4355 106.693 87.8365 106.742 88.1158 106.758C88.3908 106.774 88.7837 106.774 88.9887 106.759C89.1941 106.744 89.5187 106.7 89.71 106.662C89.9016 106.623 90.2253 106.538 90.4293 106.473C90.6333 106.408 90.9614 106.29 91.158 106.211C91.3546 106.132 91.6699 105.989 91.8588 105.895C92.0477 105.801 92.5001 105.54 92.8645 105.315C93.2285 105.089 93.8285 104.705 94.1972 104.461C94.5656 104.217 95.1776 103.799 95.5565 103.534C95.9357 103.268 96.6583 102.746 97.1628 102.373C97.6673 102 98.3554 101.482 98.6921 101.222C99.0289 100.962 99.6901 100.442 100.161 100.067C100.633 99.6909 101.457 99.0209 101.993 98.5779L102.968 97.7719L104.414 96.3252C105.21 95.5295 106.155 94.5635 106.515 94.1782C106.875 93.7932 107.359 93.2681 107.591 93.0115C107.822 92.7551 108.156 92.3801 108.332 92.1785C108.508 91.9768 108.797 91.6391 108.973 91.4285C109.149 91.2175 109.474 90.8051 109.696 90.5118C109.918 90.2184 110.364 89.6107 110.688 89.1617C111.012 88.7124 111.527 87.9773 111.832 87.5284C112.138 87.079 112.566 86.434 112.784 86.095C113.002 85.7556 113.403 85.1106 113.674 84.6616C113.945 84.2123 114.319 83.5749 114.504 83.2449C114.689 82.9149 114.971 82.3972 115.129 82.0949C115.288 81.7922 115.533 81.2899 115.675 80.9782C115.816 80.6665 116.068 80.0888 116.235 79.6948C116.402 79.3005 116.658 78.6735 116.804 78.3015C116.949 77.9291 117.199 77.2691 117.358 76.8347C117.517 76.4001 117.812 75.5527 118.014 74.9514C118.216 74.3503 118.548 73.3077 118.752 72.6346C118.973 71.9049 119.182 71.1356 119.269 70.7279C119.35 70.3519 119.508 69.5869 119.62 69.0279C119.732 68.4685 119.893 67.6362 119.977 67.1779C120.061 66.7195 120.197 65.9395 120.278 65.4445C120.36 64.9495 120.479 64.1694 120.544 63.7111C120.608 63.2528 120.699 62.5401 120.745 62.1277C120.791 61.715 120.852 61.1 120.881 60.761C120.91 60.4217 120.948 59.8516 120.967 59.4943C120.985 59.1366 121 58.7063 121 58.5379C121.001 58.3599 120.986 58.2226 120.965 58.2099C120.941 58.1949 120.941 58.1749 120.966 58.1449C120.992 58.1149 120.998 57.5019 120.989 56.1062C120.981 55.0088 120.958 53.7058 120.939 53.2108C120.919 52.7158 120.886 52.0781 120.867 51.7941C120.848 51.5098 120.808 51.0298 120.78 50.7274C120.752 50.4247 120.684 49.8248 120.629 49.3941C120.575 48.963 120.469 48.243 120.394 47.794C120.319 47.3447 120.184 46.6096 120.094 46.1606C120.004 45.7113 119.839 44.9539 119.728 44.4773C119.617 44.0006 119.425 43.2279 119.302 42.7606C119.18 42.2929 118.981 41.5729 118.861 41.1605C118.741 40.7478 118.56 40.1405 118.458 39.8105C118.356 39.4805 118.178 38.9254 118.062 38.5771C117.946 38.2288 117.726 37.6211 117.573 37.2271C117.42 36.8331 117.161 36.192 116.998 35.8027C116.834 35.4134 116.57 34.806 116.41 34.4527C116.25 34.0993 115.888 33.3453 115.604 32.777C115.321 32.2086 114.958 31.5036 114.798 31.2103C114.639 30.9169 114.379 30.4519 114.221 30.1769C114.063 29.9019 113.767 29.3992 113.563 29.0602C113.358 28.7209 113.018 28.1735 112.807 27.8435C112.595 27.5135 112.217 26.9435 111.967 26.5768C111.717 26.2101 111.328 25.6551 111.103 25.3434C110.877 25.0318 110.582 24.6118 110.446 24.4101C110.311 24.2084 110.029 23.8177 109.821 23.5417C109.612 23.2657 109.241 22.8007 108.997 22.5084C108.752 22.216 108.332 21.7293 108.063 21.4273C107.793 21.125 107.369 20.6603 107.119 20.3943C106.87 20.1283 106.277 19.5133 105.803 19.027C105.328 18.541 104.42 17.6456 103.786 17.0372C103.063 16.3449 102.347 15.6955 101.869 15.3005C101.45 14.9532 100.777 14.4071 100.374 14.0872C99.9702 13.7668 99.3155 13.2572 98.9179 12.9542C98.5206 12.6515 97.9458 12.2238 97.6406 12.0038C97.3358 11.7838 96.8064 11.4108 96.4642 11.1751C96.1224 10.9394 95.5701 10.5721 95.2374 10.3584C94.9046 10.1447 94.2868 9.76474 93.8647 9.51374C93.4421 9.26273 92.8371 8.91006 92.5202 8.72972C92.2029 8.54938 91.7478 8.29338 91.5088 8.16071C91.2695 8.02804 90.7629 7.7537 90.3828 7.5517C90.0023 7.34937 89.1849 6.93268 88.5654 6.62536C87.9459 6.31835 87.2051 5.95832 86.9184 5.8257C86.632 5.6927 86.0438 5.42836 85.6119 5.23769C85.18 5.04702 84.5145 4.76234 84.133 4.605C83.7515 4.44733 83.0917 4.18332 82.6665 4.01832C82.2413 3.85331 81.6289 3.63131 81.3052 3.52464C80.9819 3.4183 80.3187 3.20996 79.832 3.06163C79.3453 2.91363 78.5285 2.67362 78.0169 2.52895C77.5053 2.38394 76.8297 2.19761 76.5155 2.1146C76.2012 2.0316 75.5811 1.87359 75.1374 1.76359C74.6937 1.65359 73.998 1.48825 73.5913 1.39625C73.1846 1.30391 72.436 1.14624 71.9275 1.04524C71.4193 0.944234 70.6479 0.801563 70.2133 0.727898C69.7787 0.654228 69.2194 0.564563 68.9696 0.528561C68.7202 0.492231 68.2134 0.425225 67.8436 0.379559C67.4739 0.333559 66.9371 0.272887 66.6504 0.244217C66.364 0.215887 65.8195 0.169877 65.4404 0.142212C65.0616 0.114882 64.3581 0.084213 63.8774 0.074543C63.3968 0.064843 62.8923 0.0412135 62.7561 0.0218735C62.6042 0.000543473 62.4966 -0.00112814 62.4775 0.0178719C62.4596 0.0355419 62.3794 0.0375416 62.2879 0.0225716C62.2007 0.00839156 61.1463 -0.00160709 59.9446 0.000392914L59.9435 0ZM58.8091 16.031C58.7489 16.0336 58.5412 16.048 58.3469 16.0626C58.153 16.0776 57.6992 16.1143 57.3386 16.1436C56.9782 16.1733 56.2068 16.2496 55.6244 16.3133C55.0422 16.377 54.2025 16.481 53.7589 16.5447C53.3152 16.608 52.6921 16.705 52.3741 16.76C52.0558 16.8153 51.4961 16.921 51.1304 16.9953C50.7644 17.0693 50.2044 17.19 49.8858 17.2633C49.5675 17.3363 48.9702 17.4847 48.5581 17.5923C48.1464 17.7 47.5524 17.8653 47.2382 17.9594C46.9239 18.0534 46.3276 18.2427 45.9132 18.38C45.4991 18.5174 44.8618 18.7414 44.4974 18.8777C44.1334 19.014 43.527 19.2514 43.1503 19.4054C42.7735 19.5594 42.1701 19.8174 41.8098 19.9787C41.4495 20.1401 40.7158 20.4914 40.1797 20.7595C39.6435 21.0275 38.9253 21.4022 38.5831 21.5918C38.2413 21.7815 37.6601 22.1155 37.292 22.3341C36.9237 22.5525 36.3186 22.9265 35.9476 23.1651C35.5762 23.4038 35.0303 23.7652 34.7345 23.9685C34.4387 24.1719 33.9396 24.5252 33.6253 24.7539C33.3111 24.9822 32.8348 25.3389 32.5666 25.5462C32.2987 25.7532 31.8674 26.1136 31.6086 26.3472C31.3498 26.5806 30.8362 27.0503 30.4671 27.3906C30.0984 27.7313 29.4782 28.318 29.089 28.6947C28.7002 29.0713 28.1395 29.6263 27.8434 29.928C27.5469 30.2297 27.1755 30.6191 27.0176 30.7934C26.8599 30.9674 26.6243 31.2374 26.4942 31.3934C26.3641 31.5494 26.0381 31.9618 25.7699 32.3101C25.5016 32.6585 25.106 33.1878 24.8906 33.4865C24.6751 33.7848 24.3269 34.2798 24.1168 34.5865C23.9068 34.8928 23.6096 35.3385 23.4567 35.5769C23.3038 35.8152 23.0318 36.2502 22.8523 36.5435C22.6725 36.8369 22.4345 37.2342 22.3233 37.4269C22.212 37.6192 21.9962 38.0019 21.8437 38.2769C21.6911 38.5519 21.3522 39.2043 21.09 39.727C20.8282 40.2496 20.4803 40.977 20.317 41.3437C20.1536 41.7103 19.9086 42.2834 19.7728 42.617C19.6367 42.9504 19.4289 43.483 19.3113 43.8004C19.1937 44.1174 18.9829 44.722 18.8428 45.1438C18.7029 45.5654 18.4881 46.2611 18.3658 46.6898C18.2431 47.1181 18.0767 47.7408 17.9957 48.0731C17.9147 48.4052 17.7806 48.9995 17.6976 49.3939C17.6146 49.7879 17.4936 50.4255 17.4284 50.8106C17.3635 51.1956 17.2795 51.7279 17.2418 51.9939C17.2042 52.2596 17.1433 52.7473 17.1064 53.0773C17.0694 53.4073 17.0169 53.9547 16.9894 54.294C16.9618 54.633 16.9218 55.2107 16.9007 55.5774C16.8795 55.944 16.8623 56.8814 16.862 57.6607C16.862 58.4398 16.8795 59.3848 16.901 59.7608C16.9222 60.1365 16.9618 60.7065 16.989 61.0275C17.0163 61.3482 17.0616 61.8209 17.0899 62.0775C17.1181 62.3342 17.1793 62.8215 17.2253 63.1609C17.2717 63.4999 17.3541 64.0399 17.4082 64.3609C17.4626 64.6816 17.5534 65.1766 17.6099 65.4609C17.6667 65.7449 17.7661 66.2099 17.831 66.4943C17.8959 66.7783 18.0024 67.221 18.0673 67.4776C18.1325 67.7343 18.2838 68.2817 18.4034 68.6944C18.5234 69.1067 18.6979 69.6767 18.7913 69.961C18.8848 70.245 19.0414 70.6877 19.1392 70.9444C19.2373 71.2011 19.4034 71.6134 19.5086 71.8611C19.6138 72.1084 19.8134 72.5585 19.9523 72.8611C20.0907 73.1635 20.4595 73.9135 20.7714 74.5278C21.0833 75.1419 21.5448 76.0195 21.7972 76.4779C22.0493 76.9362 22.4903 77.7162 22.777 78.2113C23.0637 78.7063 23.4734 79.404 23.6872 79.7613C23.9006 80.1186 24.3016 80.779 24.5783 81.228C24.8546 81.677 25.3557 82.4797 25.6922 83.0114C26.0286 83.543 26.5802 84.4044 26.918 84.9254C27.2554 85.4465 27.9364 86.4815 28.4309 87.2255C28.9253 87.9695 29.6624 89.0882 30.0688 89.7115C30.4752 90.3349 31.4657 91.865 32.27 93.1116C33.0741 94.3583 34.7375 96.9457 35.9663 98.8618C37.1951 100.777 39.629 104.58 41.3748 107.312C43.1206 110.044 44.5737 112.303 44.6039 112.333C44.6358 112.365 44.9542 112.459 45.3602 112.557C45.7461 112.649 46.341 112.78 46.6821 112.846C47.0233 112.912 47.7567 113.039 48.3123 113.129C48.8676 113.219 49.6473 113.338 50.0446 113.393C50.4423 113.448 51.2513 113.554 51.8429 113.628C52.4344 113.701 53.3873 113.814 53.9604 113.877C54.5335 113.941 55.5244 114.046 56.162 114.11C56.8 114.174 57.7357 114.266 58.2419 114.314C58.855 114.372 59.1733 114.389 59.1955 114.367C59.218 114.345 58.979 113.908 58.4799 113.056C58.0678 112.354 57.33 111.104 56.8403 110.279C56.3509 109.454 55.4326 107.916 54.8001 106.862C54.1672 105.808 53.3175 104.398 52.9111 103.729C52.5051 103.059 51.7565 101.829 51.2483 100.995C50.7398 100.161 49.8349 98.6836 49.2376 97.712C48.6404 96.7403 47.6599 95.1502 47.0589 94.1785C46.4579 93.2069 45.4331 91.5548 44.7813 90.5075C44.13 89.4601 42.9502 87.57 42.1603 86.3073C41.37 85.0447 39.8538 82.6316 38.791 80.9449C37.7282 79.2581 36.4543 77.2405 35.9606 76.4614C35.4668 75.6821 34.8591 74.7374 34.61 74.3614C34.361 73.9854 34.0208 73.4603 33.8541 73.1947C33.6874 72.9287 33.3839 72.4263 33.1795 72.078C32.9752 71.7296 32.6623 71.1746 32.4841 70.8446C32.3063 70.5146 32.0155 69.9519 31.8387 69.5946C31.6619 69.2369 31.3998 68.6819 31.2566 68.3612C31.1131 68.0402 30.9027 67.5492 30.789 67.2695C30.6751 66.9899 30.4933 66.5172 30.3847 66.2195C30.2761 65.9215 30.1111 65.4378 30.0177 65.1445C29.9242 64.8511 29.8025 64.4535 29.7471 64.2611C29.6916 64.0685 29.5935 63.7011 29.5286 63.4444C29.4641 63.1878 29.3659 62.7601 29.3105 62.4944C29.255 62.2284 29.179 61.8311 29.1417 61.611C29.1044 61.391 29.051 61.0534 29.0231 60.861C28.9948 60.6684 28.9488 60.2784 28.9209 59.9944C28.8927 59.71 28.854 59.2 28.8352 58.861C28.816 58.5216 28.8009 57.6966 28.8012 57.0276C28.8016 56.3583 28.8174 55.5409 28.8365 55.2109C28.8554 54.8809 28.894 54.3859 28.9219 54.1109C28.9501 53.8359 29.0103 53.3632 29.0557 53.0608C29.1011 52.7582 29.1922 52.2408 29.2577 51.9108C29.3236 51.5808 29.4453 51.0411 29.5279 50.7111C29.611 50.3815 29.74 49.9015 29.8143 49.6444C29.8889 49.3878 30.0261 48.9448 30.1195 48.6607C30.2126 48.3764 30.3689 47.9264 30.4664 47.6607C30.5642 47.3947 30.7302 46.9597 30.8361 46.694C30.9416 46.428 31.1114 46.023 31.2132 45.794C31.3147 45.5646 31.5389 45.1 31.7114 44.7606C31.8835 44.4213 32.1604 43.9089 32.3265 43.6219C32.4925 43.3346 32.787 42.8469 32.9809 42.5386C33.1748 42.2299 33.5187 41.7146 33.7449 41.3939C33.9711 41.0729 34.324 40.5928 34.5287 40.3272C34.7334 40.0612 35.1226 39.5812 35.3936 39.2605C35.6641 38.9395 36.1613 38.3695 36.498 37.9938C36.8345 37.6178 37.3924 37.0275 37.7373 36.6818C38.0822 36.3361 38.5763 35.8624 38.8351 35.6298C39.0939 35.3968 39.4871 35.0564 39.709 34.8727C39.9308 34.6894 40.2928 34.4001 40.5137 34.23C40.7342 34.0597 41.15 33.7544 41.438 33.551C41.7258 33.3477 42.1728 33.0443 42.4316 32.8766C42.6904 32.7093 43.1441 32.4283 43.4399 32.2526C43.7357 32.0766 44.2123 31.8036 44.4987 31.6456C44.7854 31.4876 45.3827 31.1799 45.8264 30.9623C46.2701 30.7443 46.8979 30.4506 47.2213 30.3096C47.545 30.1683 48.0737 29.9479 48.3967 29.8199C48.7193 29.6919 49.1657 29.5193 49.3882 29.4366C49.6104 29.3536 50.1428 29.1683 50.5711 29.0243C50.9993 28.8806 51.6497 28.6729 52.0164 28.5629C52.3831 28.4529 52.8647 28.3169 53.0862 28.2602C53.308 28.2036 53.8223 28.0912 54.229 28.0106C54.6361 27.9296 55.3244 27.8109 55.7587 27.7466C56.1933 27.6826 56.9418 27.5852 57.4225 27.5305C57.9032 27.4762 58.3892 27.4215 58.5028 27.4095C58.6231 27.3969 58.7173 27.4012 58.729 27.4195C58.7408 27.4389 58.8056 27.4405 58.8924 27.4238C58.9714 27.4088 59.3028 27.3958 59.6288 27.3948C60.1619 27.3935 60.2241 27.3875 60.2446 27.3352L60.2674 27.2768L60.3108 27.3352C60.3471 27.3838 60.4093 27.3935 60.6913 27.3935C60.9814 27.3935 61.0318 27.3855 61.0513 27.3352L61.0742 27.2768L61.1175 27.3352C61.1414 27.3672 61.2002 27.3935 61.2479 27.3935C61.296 27.3935 61.3498 27.3672 61.3679 27.3352L61.4012 27.2768L61.4238 27.3352C61.444 27.3872 61.5027 27.3935 61.9723 27.3938C62.2614 27.3938 62.7552 27.4088 63.0695 27.4272C63.3837 27.4452 63.815 27.4755 64.0274 27.4945C64.2402 27.5135 64.6106 27.5515 64.8509 27.5789C65.0912 27.6065 65.5376 27.6669 65.8424 27.7132C66.1476 27.7599 66.6995 27.8575 67.0693 27.9305C67.439 28.0035 68.0669 28.1442 68.4642 28.2429C68.8615 28.3412 69.4439 28.4985 69.7582 28.5922C70.0725 28.6859 70.5794 28.8466 70.8842 28.9489C71.1891 29.0516 71.6959 29.2332 72.0102 29.3526C72.3245 29.4719 72.8085 29.6632 73.0858 29.7776C73.3631 29.8922 73.832 30.0953 74.1278 30.2289C74.4236 30.3626 75.0286 30.6546 75.4723 30.8773C75.9159 31.1003 76.5963 31.4599 76.9838 31.6769C77.3717 31.8936 77.8557 32.1716 78.0594 32.294C78.2634 32.4166 78.695 32.679 79.0183 32.8766C79.342 33.0743 79.7652 33.341 79.9588 33.4693C80.1527 33.598 80.4626 33.8163 80.6479 33.955C80.833 34.0937 81.1056 34.305 81.2535 34.4247C81.4014 34.5443 81.7191 34.8097 81.9594 35.0144C82.1997 35.2194 82.5402 35.5177 82.7156 35.6777C82.8914 35.838 83.3782 36.3047 83.7976 36.7151C84.2171 37.1257 84.7398 37.6601 84.9589 37.9027C85.1784 38.1451 85.4934 38.5011 85.6591 38.6938C85.8248 38.8861 86.1424 39.2688 86.365 39.5438C86.5875 39.8188 86.9058 40.2238 87.0721 40.4438C87.2389 40.6638 87.5272 41.0612 87.7138 41.3272C87.9 41.5928 88.1612 41.9815 88.2939 42.1905C88.4267 42.3998 88.6448 42.7598 88.779 42.9905C88.9131 43.2215 89.1611 43.6972 89.3298 44.0479C89.4986 44.3982 89.7298 44.8932 89.8434 45.1479C89.9571 45.4022 90.1409 45.8279 90.2515 46.0939C90.3624 46.3596 90.5365 46.7946 90.6384 47.0606C90.7399 47.3263 90.913 47.8063 91.0225 48.1273C91.1325 48.448 91.2891 48.9356 91.3708 49.2106C91.4524 49.4856 91.5808 49.958 91.6561 50.2607C91.7311 50.563 91.8383 51.0507 91.8938 51.344C91.9492 51.6374 92.0238 52.1024 92.0591 52.3774C92.0944 52.6524 92.1395 53.1248 92.159 53.4274C92.1781 53.7298 92.2051 54.1498 92.2185 54.3608C92.2319 54.5714 92.2427 55.5091 92.2424 56.4441C92.242 57.3792 92.2313 58.2792 92.2185 58.4442C92.2058 58.6092 92.1798 58.9542 92.161 59.2109C92.1418 59.4676 92.0954 59.9249 92.0571 60.2276C92.0188 60.5299 91.9217 61.1676 91.841 61.6443C91.7603 62.121 91.6397 62.7883 91.5728 63.1277C91.5059 63.4667 91.3677 64.0217 91.2655 64.361C91.1637 64.7 90.959 65.3377 90.8108 65.7777C90.6626 66.2177 90.4279 66.8761 90.2895 67.2404C90.1507 67.6051 89.9268 68.1601 89.7917 68.4738C89.6569 68.7878 89.4317 69.2768 89.2922 69.5611C89.1524 69.8452 88.8616 70.4078 88.6465 70.8112C88.4314 71.2145 88.1484 71.7245 88.0183 71.9445C87.8879 72.1645 87.6116 72.5995 87.4042 72.9112C87.1968 73.2229 86.8718 73.6879 86.6819 73.9446C86.492 74.2013 86.1364 74.6586 85.8917 74.9613C85.6473 75.2636 85.2591 75.729 85.0292 75.9946C84.7993 76.2603 84.3532 76.7553 84.0383 77.0947C83.723 77.4337 83.2323 77.9233 82.9476 78.1827C82.6629 78.4417 82.2939 78.7694 82.1275 78.9107C81.9611 79.052 81.6465 79.3051 81.428 79.4727C81.2099 79.6407 80.8923 79.8731 80.7222 79.9891C80.5524 80.1051 80.2546 80.2938 80.0603 80.4088C79.8664 80.5234 79.4083 80.7614 79.0429 80.9374C78.6772 81.1134 78.2386 81.3358 78.0682 81.4314C77.8974 81.5271 77.5663 81.7301 77.3324 81.8825C77.0981 82.0348 76.7506 82.2831 76.5593 82.4338C76.3684 82.5848 76.0777 82.8365 75.9136 82.9931C75.7496 83.1498 75.4935 83.4282 75.3446 83.6115C75.1957 83.7949 75.0098 84.0429 74.9315 84.1625C74.8535 84.2825 74.7137 84.5299 74.6209 84.7125C74.5281 84.8955 74.3987 85.1985 74.3335 85.3859C74.268 85.5735 74.1826 85.8885 74.1436 86.0859C74.1043 86.2836 74.0647 86.6172 74.0549 86.8282L74.0374 87.2116L74.1931 88.1283L74.349 89.045L74.4966 89.3723C74.5775 89.5523 74.7322 89.857 74.8398 90.0493C74.9473 90.2416 75.1544 90.5583 75.2999 90.7527C75.4451 90.9473 75.7039 91.2427 75.8747 91.409C76.0451 91.5754 76.3072 91.799 76.4572 91.9054C76.6067 92.012 76.8871 92.1811 77.08 92.2807C77.2729 92.3807 77.6168 92.5231 77.8437 92.5971C78.0709 92.6711 78.4319 92.7631 78.646 92.8021C78.97 92.8607 79.1676 92.8728 79.8251 92.8731C80.4963 92.8737 80.6755 92.8628 81.0183 92.8004C81.2401 92.76 81.6183 92.6594 81.8586 92.5764C82.0989 92.4937 82.4091 92.3977 82.5476 92.363C82.6865 92.3283 82.9281 92.2454 83.0854 92.1787C83.2427 92.112 83.4696 92.004 83.5896 91.9384C83.7096 91.8727 83.9442 91.736 84.1106 91.635C84.277 91.534 84.5721 91.346 84.766 91.2173C84.9603 91.0883 85.3041 90.85 85.5307 90.6873C85.7569 90.5247 86.1881 90.2023 86.4886 89.9713C86.7891 89.7403 87.3222 89.3176 87.6735 89.0326C88.0247 88.7473 88.6223 88.2519 89.0011 87.9313C89.3803 87.6106 89.9248 87.1432 90.2112 86.8926C90.4979 86.6416 91.1939 85.9732 91.758 85.4072C92.3223 84.8412 93.0214 84.1189 93.3119 83.8022C93.6023 83.4852 94.0765 82.9528 94.3659 82.6188C94.655 82.2848 95.101 81.7541 95.3568 81.4398C95.6126 81.1254 96.0536 80.5631 96.3369 80.1898C96.6199 79.8167 97.0583 79.2177 97.3107 78.8587C97.5631 78.4997 97.9379 77.9477 98.1432 77.6314C98.3489 77.3154 98.6958 76.7617 98.9139 76.4006C99.1324 76.04 99.45 75.4969 99.6198 75.1946C99.7899 74.8919 100.115 74.2769 100.343 73.8279C100.571 73.3786 100.871 72.7635 101.01 72.4612C101.149 72.1585 101.377 71.6412 101.516 71.3112C101.656 70.9812 101.877 70.4265 102.009 70.0788C102.14 69.7308 102.352 69.1385 102.479 68.7621C102.606 68.3858 102.793 67.7928 102.895 67.4444C102.997 67.0961 103.141 66.5784 103.214 66.2944C103.288 66.01 103.417 65.47 103.501 65.0943C103.585 64.7183 103.707 64.126 103.771 63.7777C103.835 63.4293 103.933 62.8366 103.989 62.4609C104.044 62.0849 104.128 61.425 104.174 60.9943C104.219 60.5632 104.273 59.9859 104.293 59.7109C104.313 59.4359 104.344 58.8732 104.363 58.4608C104.381 58.0482 104.396 56.9758 104.395 56.0775L104.394 54.4441L104.309 53.5941C104.263 53.1264 104.172 52.3314 104.107 51.8274C104.043 51.323 103.931 50.5483 103.858 50.1057C103.785 49.663 103.665 49.003 103.591 48.639C103.517 48.275 103.387 47.6999 103.303 47.3606C103.219 47.0212 103.08 46.5112 102.995 46.2272C102.91 45.9429 102.721 45.3806 102.575 44.9772C102.428 44.5738 102.202 43.9588 102.071 43.6105C101.941 43.2621 101.721 42.7075 101.583 42.3781C101.445 42.0485 101.217 41.5311 101.078 41.2281C100.939 40.9251 100.646 40.3247 100.427 39.8937C100.208 39.4627 99.8986 38.8777 99.7386 38.5937C99.5786 38.3094 99.3255 37.8747 99.1766 37.627C99.0273 37.3793 98.747 36.9293 98.5531 36.627C98.3595 36.3246 98.0993 35.927 97.9756 35.7436C97.8516 35.5603 97.5898 35.1703 97.3938 34.8769C97.1978 34.5836 96.861 34.1186 96.6449 33.8436C96.4288 33.5686 96.1 33.1636 95.9141 32.9436C95.7286 32.7235 95.4022 32.3485 95.1891 32.1102C94.976 31.8719 94.5367 31.3918 94.2127 31.0435C93.889 30.6952 92.9354 29.7255 92.0941 28.8888C91.0629 27.8634 90.3651 27.1997 89.953 26.8527C89.6172 26.5694 89.065 26.1127 88.7262 25.8377C88.3877 25.5627 87.8355 25.1251 87.4994 24.8651C87.1632 24.605 86.5959 24.181 86.2389 23.9227C85.8816 23.6647 85.2191 23.2094 84.766 22.911C84.3133 22.613 83.7385 22.248 83.4888 22.1007C83.239 21.953 82.8008 21.7023 82.514 21.5436C82.2276 21.385 81.5621 21.0416 81.0351 20.7806C80.5081 20.5196 79.7766 20.1746 79.4093 20.0143C79.0422 19.8536 78.4221 19.5936 78.0312 19.4366C77.6406 19.2796 77.1243 19.0769 76.884 18.9859C76.6437 18.8953 76.1748 18.7232 75.8421 18.6039C75.5093 18.4846 74.8361 18.2529 74.3463 18.0889C73.8566 17.9249 73.2516 17.7399 73.0018 17.6776C72.7521 17.6152 72.1548 17.4742 71.6742 17.3642C71.1935 17.2542 70.3919 17.0819 69.8927 16.9812C69.3936 16.8805 68.6451 16.7379 68.229 16.6639C67.8132 16.5902 67.1174 16.4772 66.6828 16.4129C66.2485 16.3489 65.6206 16.2655 65.2879 16.2282C64.9551 16.1909 64.4183 16.1385 64.0947 16.1119C63.7713 16.0855 63.3085 16.0535 63.0661 16.0412L62.6261 16.0185L62.6019 16.0808L62.5777 16.1432L62.5445 16.0849L62.5115 16.0265H58.9834L58.9492 16.0849L58.9149 16.1432L58.9139 16.0849C58.9132 16.0405 58.8867 16.0275 58.8036 16.0312L58.8091 16.031ZM59.8611 32.3653C59.8511 32.3683 59.7899 32.376 59.725 32.3826C59.6605 32.389 59.199 32.4323 58.6999 32.479C58.2007 32.5253 57.5503 32.5936 57.2545 32.6306C56.9588 32.668 56.5504 32.7276 56.347 32.764C56.1437 32.8 55.826 32.844 55.6412 32.862C55.4563 32.88 55.1615 32.9183 54.9857 32.947C54.8103 32.976 54.4093 33.064 54.095 33.1433C53.7807 33.2223 53.253 33.372 52.922 33.4757C52.5912 33.5793 51.9936 33.7817 51.5943 33.9253C51.195 34.069 50.596 34.2917 50.2632 34.42C49.9305 34.5484 49.3568 34.776 48.9884 34.926C48.62 35.076 48.1265 35.2944 47.8913 35.411C47.6563 35.528 47.2694 35.7344 47.0318 35.8701C46.7942 36.0057 46.4029 36.2411 46.1626 36.3931C45.9223 36.5451 45.4988 36.8271 45.2215 37.0201C44.9442 37.2131 44.5361 37.5071 44.3146 37.6737C44.0928 37.8404 43.6484 38.1904 43.3264 38.4514C43.0044 38.7124 42.471 39.1597 42.1413 39.4457C41.8112 39.7317 41.391 40.1181 41.2079 40.3044C41.0243 40.4911 40.7027 40.8384 40.4926 41.0768C40.2828 41.3151 39.9689 41.6828 39.7951 41.8935C39.621 42.1042 39.2869 42.5318 39.0523 42.8435C38.8177 43.1552 38.4597 43.6579 38.2566 43.9602C38.0536 44.2626 37.7821 44.6829 37.6526 44.8936C37.5232 45.1042 37.2836 45.5169 37.1199 45.8103C36.9562 46.1036 36.6984 46.5986 36.5472 46.9103C36.3956 47.222 36.1845 47.6793 36.0783 47.927C35.9721 48.1747 35.8137 48.5643 35.7263 48.7937C35.639 49.0227 35.4756 49.4877 35.3633 49.827C35.2511 50.166 35.0988 50.6687 35.0245 50.9437C34.9502 51.2187 34.8518 51.6087 34.8057 51.8104C34.7597 52.0121 34.6837 52.3724 34.6373 52.6111C34.5906 52.8498 34.5224 53.2398 34.4854 53.4778C34.4481 53.7158 34.3876 54.1804 34.3503 54.5105C34.3133 54.8405 34.2673 55.3502 34.2481 55.6432C34.2293 55.9362 34.2135 56.6535 34.2135 57.2372C34.2135 57.8206 34.2293 58.5183 34.2488 58.7876C34.2679 59.057 34.3143 59.5473 34.3513 59.8773C34.3882 60.2073 34.4635 60.7397 34.5187 61.0607C34.5738 61.3814 34.6723 61.884 34.7375 62.1774C34.8027 62.4707 34.9321 62.9881 35.0249 63.3274C35.118 63.6664 35.2817 64.2065 35.3889 64.5275C35.4961 64.8485 35.6971 65.3961 35.8356 65.7442C35.9741 66.0925 36.1868 66.5972 36.3082 66.8658C36.4295 67.1345 36.6604 67.6145 36.8207 67.9325C36.9814 68.2505 37.2268 68.7132 37.3659 68.9609C37.5054 69.2082 37.7619 69.6432 37.9363 69.9276C38.1108 70.2116 38.5723 70.9083 38.9615 71.4753C39.3507 72.0423 40.0489 73.0697 40.513 73.7587C40.9769 74.4474 41.6424 75.4461 41.992 75.9777C42.3415 76.5094 42.922 77.4015 43.282 77.9605C43.6419 78.5191 44.1619 79.3335 44.4372 79.7705C44.7128 80.2072 45.177 80.9502 45.4691 81.4212C45.7612 81.8926 46.348 82.8553 46.7733 83.5613C47.1984 84.2669 48.3796 86.2246 49.3976 87.9114C50.4161 89.5981 51.7468 91.7881 52.3551 92.7782C52.9635 93.7682 53.7692 95.0732 54.145 95.6782C54.5211 96.2832 55.3002 97.5283 55.8764 98.445C56.4525 99.3616 57.287 100.682 57.731 101.378C58.1754 102.075 58.8483 103.125 59.2271 103.712C59.606 104.298 60.1653 105.161 60.4698 105.628C60.7746 106.096 61.34 106.958 61.7262 107.545C62.112 108.132 63.0051 109.467 63.7103 110.512C64.4158 111.557 65.2104 112.73 65.4763 113.119L65.9599 113.825L66.4473 113.827C66.7155 113.828 67.2298 113.806 67.5901 113.778C67.9508 113.75 68.5104 113.697 68.8337 113.66C69.1574 113.623 69.7245 113.548 70.0942 113.493C70.4639 113.439 71.0689 113.341 71.4387 113.276C71.8084 113.211 72.5193 113.075 73.0184 112.974C73.5176 112.873 74.3192 112.701 74.7999 112.592C75.2805 112.482 76.2183 112.257 76.8838 112.09C77.5493 111.924 78.113 111.778 78.1369 111.765C78.1671 111.749 77.8898 111.258 77.1914 110.094C76.6482 109.187 75.7575 107.711 75.2126 106.812C74.6678 105.914 73.7303 104.376 73.1297 103.395C72.5291 102.414 71.6404 100.969 71.1553 100.182C70.67 99.3956 69.8485 98.0683 69.3299 97.2323C68.8112 96.3959 67.7969 94.7669 67.0759 93.6118C66.3549 92.4568 64.7261 89.8618 63.4566 87.845C62.1867 85.8283 60.205 82.6932 59.0527 80.8784C57.9005 79.0634 56.0579 76.1683 54.9585 74.4448C53.8587 72.7215 52.653 70.8687 52.2789 70.3281C51.9048 69.787 51.403 69.0447 51.164 68.678C50.925 68.3113 50.5459 67.717 50.322 67.357C50.0978 66.9973 49.7378 66.3973 49.522 66.0236C49.3063 65.6503 48.9584 65.0219 48.7486 64.6279C48.5392 64.2336 48.2249 63.6035 48.0505 63.2279C47.8761 62.8519 47.628 62.2819 47.4986 61.9612C47.3695 61.6402 47.1796 61.1229 47.0768 60.8112C46.9739 60.4995 46.8442 60.0645 46.7887 59.8445C46.7332 59.6245 46.6576 59.2794 46.6203 59.0778C46.5827 58.8761 46.5346 58.5544 46.5127 58.3628C46.4869 58.1348 46.4795 57.7087 46.4916 57.1294C46.5017 56.6427 46.5339 56.0494 46.5635 55.811C46.5927 55.5727 46.6553 55.1677 46.702 54.911C46.7487 54.6543 46.8401 54.2343 46.9047 53.9776C46.9695 53.721 47.104 53.2676 47.2038 52.9706C47.3036 52.6733 47.4633 52.2456 47.5587 52.0206C47.6542 51.7952 47.8512 51.3782 47.9964 51.0942C48.1416 50.8099 48.3577 50.4172 48.4767 50.2216C48.596 50.0256 48.7876 49.7255 48.9032 49.5549C49.0185 49.3839 49.238 49.0792 49.3909 48.8775C49.5435 48.6758 49.7694 48.3912 49.8928 48.2445C50.0161 48.0982 50.2406 47.8675 50.3919 47.7319C50.5428 47.5962 50.8104 47.3658 50.9858 47.2195C51.1616 47.0735 51.5095 46.8012 51.7589 46.6145C52.0086 46.4278 52.3639 46.1755 52.5488 46.0538C52.7336 45.9322 53.0513 45.7332 53.2546 45.6118C53.458 45.4908 53.8438 45.2811 54.1117 45.1461C54.38 45.0115 54.7655 44.8305 54.9688 44.7445C55.1722 44.6585 55.5352 44.5211 55.7755 44.4395C56.0159 44.3575 56.4091 44.2395 56.6494 44.1774C56.8898 44.1151 57.2071 44.0401 57.3549 44.0108C57.5025 43.9811 57.7761 43.9358 57.9626 43.9098C58.1491 43.8838 58.5048 43.8475 58.7528 43.8294C59.0009 43.8111 59.3326 43.7948 59.4896 43.7928C59.647 43.7908 59.898 43.7741 60.0483 43.7558C60.2345 43.7331 60.5592 43.7338 61.0694 43.7584C61.4808 43.7784 62.031 43.8177 62.2922 43.8457C62.5533 43.8737 62.9909 43.9337 63.2649 43.979C63.5389 44.0244 63.9019 44.092 64.0716 44.1294C64.2414 44.1664 64.5765 44.2504 64.8161 44.3154C65.0557 44.3807 65.449 44.502 65.69 44.585C65.931 44.6677 66.3398 44.8251 66.5986 44.9341C66.8574 45.0431 67.2359 45.2194 67.4395 45.3261C67.6432 45.4324 67.9534 45.6057 68.1286 45.7111C68.3037 45.8164 68.5984 46.0048 68.7833 46.1294C68.9682 46.2544 69.3087 46.5274 69.5396 46.7361C69.7709 46.9451 70.1698 47.3321 70.4269 47.5968C70.6837 47.8611 71.0608 48.2761 71.2652 48.5192C71.4693 48.7622 71.7735 49.1478 71.9409 49.3762C72.1083 49.6045 72.3681 49.9832 72.5183 50.2179C72.6686 50.4522 72.8901 50.8262 73.0111 51.0489C73.1317 51.2716 73.3287 51.669 73.4487 51.9323C73.5687 52.1956 73.7367 52.6019 73.8218 52.8353C73.9068 53.0686 74.0362 53.4703 74.1098 53.728C74.1832 53.9853 74.288 54.4244 74.3428 54.7037C74.3975 54.9827 74.4698 55.421 74.5034 55.6777C74.5528 56.0537 74.5646 56.3773 74.5642 57.3444C74.5642 58.3188 74.5531 58.6198 74.5047 58.9444C74.4718 59.1644 74.4147 59.5018 74.3773 59.6945C74.34 59.8868 74.2641 60.2245 74.2086 60.4445C74.1532 60.6645 74.0076 61.1432 73.8853 61.5082C73.7327 61.9642 73.5814 62.3349 73.4023 62.6915C73.2588 62.9775 73.0295 63.3779 72.8927 63.5812C72.7559 63.7849 72.5247 64.0999 72.3788 64.2813C72.2329 64.4629 71.8864 64.8366 71.6081 65.1123C71.3301 65.3876 70.9137 65.7629 70.6824 65.9463C70.4515 66.1296 69.9295 66.5146 69.5228 66.8019C69.1161 67.0893 68.5642 67.5013 68.296 67.7176C68.0281 67.934 67.5578 68.3586 67.2513 68.6613C66.9451 68.9636 66.5922 69.3386 66.4675 69.4946C66.3428 69.6503 66.1351 69.934 66.0057 70.1246C65.8763 70.3156 65.7035 70.6043 65.6211 70.7667C65.5392 70.9287 65.4259 71.1764 65.3694 71.317C65.3133 71.4574 65.2292 71.7237 65.1825 71.9087C65.1223 72.1474 65.0928 72.3747 65.0797 72.6947C65.0648 73.0647 65.0746 73.221 65.1351 73.574C65.1759 73.8104 65.2538 74.1527 65.3082 74.3354C65.363 74.5177 65.4988 74.8474 65.6104 75.0684C65.722 75.289 65.8984 75.606 66.0026 75.7727C66.1065 75.9397 66.2867 76.201 66.4026 76.3537C66.5189 76.5064 66.7011 76.7294 66.808 76.8497C66.9145 76.9701 67.1307 77.1797 67.2876 77.3161C67.4449 77.4524 67.7021 77.6514 67.859 77.7588C68.0163 77.8658 68.2839 78.0231 68.4543 78.1084C68.6247 78.1937 68.8644 78.3008 68.987 78.3468C69.1097 78.3925 69.3541 78.4671 69.5299 78.5124C69.7057 78.5577 70.0226 78.6174 70.234 78.6448C70.4455 78.6725 70.8138 78.6948 71.0521 78.6948C71.2905 78.6948 71.6642 78.6718 71.8824 78.6441C72.1005 78.6161 72.4605 78.5498 72.6823 78.4964C72.9042 78.4434 73.2521 78.3444 73.4554 78.2764C73.6588 78.2087 74.0292 78.0641 74.2789 77.9554C74.5286 77.8464 74.9141 77.6587 75.136 77.5381C75.3578 77.4177 75.653 77.251 75.7914 77.1684C75.9303 77.0854 76.2213 76.8997 76.4388 76.7554C76.6563 76.611 77.0495 76.333 77.3127 76.1374C77.6072 75.9187 77.9964 75.5827 78.3248 75.2634C78.6186 74.978 79.0861 74.5046 79.3644 74.2113C79.6424 73.918 80.0605 73.4603 80.2931 73.1947C80.5257 72.9286 80.8682 72.5237 81.0541 72.2946C81.2396 72.0653 81.529 71.6973 81.6967 71.4763C81.8641 71.2556 82.1636 70.8429 82.3616 70.5596C82.5599 70.2762 82.8772 69.7969 83.0668 69.4946C83.2564 69.1919 83.5098 68.7719 83.6301 68.5612C83.7501 68.3502 83.9706 67.9452 84.1199 67.6612C84.2691 67.3769 84.4967 66.9118 84.6257 66.6278C84.7548 66.3435 84.9511 65.8861 85.0617 65.6111C85.1722 65.3361 85.3534 64.8485 85.464 64.5278C85.5746 64.2068 85.7195 63.7568 85.7857 63.5278C85.8519 63.2984 85.9584 62.9011 86.0226 62.6444C86.0865 62.3877 86.1776 61.9901 86.2246 61.761C86.2716 61.5317 86.3477 61.1117 86.3934 60.8277C86.439 60.5433 86.4996 60.1084 86.5275 59.861C86.5557 59.6133 86.5974 59.186 86.6206 58.911C86.6448 58.623 86.6629 57.853 86.6632 57.0943C86.6635 56.2996 86.6468 55.5859 86.6209 55.2942C86.5974 55.0282 86.5483 54.5632 86.5116 54.2609C86.4753 53.9582 86.3994 53.4482 86.3432 53.1275C86.2868 52.8065 86.1957 52.3415 86.1405 52.0941C86.0854 51.8465 85.9644 51.3611 85.872 51.0151C85.7795 50.6687 85.6044 50.0837 85.4828 49.7151C85.3611 49.346 85.1671 48.7964 85.0519 48.494C84.9366 48.1917 84.7426 47.71 84.621 47.4237C84.4993 47.1377 84.3013 46.6923 84.181 46.4346C84.0606 46.1766 83.8536 45.7733 83.7205 45.5383C83.5877 45.3029 83.3508 44.9006 83.1941 44.6439C83.0378 44.3873 82.737 43.9193 82.5262 43.6039C82.3151 43.2886 81.9384 42.7596 81.6883 42.4282C81.4386 42.0972 81.0809 41.6429 80.8934 41.4186C80.7058 41.1942 80.3778 40.8156 80.1643 40.5772C79.9509 40.3389 79.5109 39.8812 79.1859 39.5605C78.8612 39.2395 78.4223 38.8259 78.2101 38.6409C77.9984 38.4555 77.6663 38.1728 77.472 38.0125C77.278 37.8518 76.8922 37.5515 76.6149 37.3448C76.3376 37.1378 75.8764 36.8111 75.5897 36.6187C75.3033 36.4261 74.8042 36.1114 74.4805 35.9191C74.1572 35.7267 73.6352 35.4331 73.3209 35.2661C73.0066 35.0994 72.4873 34.8414 72.1667 34.6931C71.8464 34.5451 71.3516 34.3277 71.0672 34.21C70.7829 34.0927 70.3419 33.9197 70.0871 33.8254C69.832 33.731 69.3439 33.5794 69.0018 33.488C68.6599 33.3967 68.1077 33.257 67.7749 33.1774C67.4422 33.0977 66.8825 32.972 66.5313 32.8984C66.18 32.8247 65.5677 32.7114 65.17 32.6464C64.7727 32.5817 64.2433 32.5057 63.9936 32.478C63.7442 32.45 63.2608 32.411 62.9197 32.391L62.2992 32.355L62.2535 32.416L62.2082 32.477L62.1577 32.4103L62.1073 32.3437L62.0592 32.4077L62.0114 32.4717L61.9496 32.416C61.8945 32.3666 61.7769 32.3603 60.9238 32.3603C60.1968 32.3603 59.9601 32.37 59.9601 32.4003C59.9601 32.4313 59.951 32.4313 59.9198 32.4003C59.8976 32.3783 59.8712 32.3623 59.8611 32.3653Z" fill="#00D5BE"/>
</svg>
