<svg width="513" height="107" viewBox="0 0 513 107" fill="none" xmlns="http://www.w3.org/2000/svg">
    <g id="g11">
        <path id="path193487" d="M504.468 83.4601H510.927L487.939 54.0135L509.394 26.3184H503.264L484.874 50.0727L466.483 26.3184H460.244L481.699 54.0135L459.04 83.4601H465.279L484.874 57.9543L504.468 83.4601Z" fill="#00D5BE" stroke="#00D5BE" stroke-width="4.56112" stroke-miterlimit="2"/>
        <path id="path193485" d="M439.469 26.3185V83.4602H444.943V26.3185H439.469ZM439.031 11.212C439.907 12.0877 440.892 12.4161 442.206 12.4161C443.41 12.4161 444.505 11.9783 445.38 11.1025C446.256 10.2268 446.694 9.24157 446.694 7.92797C446.694 6.72383 446.256 5.73864 445.38 4.8629C444.505 3.98717 443.41 3.54932 442.206 3.54932C440.892 3.54932 439.907 3.98717 439.031 4.8629C438.156 5.73864 437.718 6.83329 437.718 8.03743C437.718 9.35103 438.156 10.3363 439.031 11.212Z" fill="#00D5BE" stroke="#00D5BE" stroke-width="4.56112" stroke-miterlimit="2"/>
        <path id="path193483" d="M424.205 79.8479L421.906 76.0166C419.497 78.2059 416.542 79.1911 413.039 79.1911C409.536 79.1911 406.799 78.3154 405.048 76.345C403.296 74.3746 402.421 71.5285 402.421 67.8066V31.0257H420.592V26.3186H402.421V13.8394H396.947V26.3186H386.438V31.0257H396.947V68.3539C396.947 73.2799 398.261 77.1113 400.998 79.8479C403.625 82.5846 407.456 83.8982 412.492 83.8982C414.681 83.8982 416.87 83.5698 418.95 82.913C421.03 82.2562 422.782 81.1615 424.205 79.8479Z" fill="#00D5BE" stroke="#00D5BE" stroke-width="4.56112" stroke-miterlimit="2"/>
        <path id="path193481" d="M365.007 29.6022C360.629 27.194 355.812 25.8804 350.558 25.8804C345.413 25.8804 340.815 27.194 336.656 29.6022C332.496 32.0105 329.321 35.404 327.132 39.7827V26.3183H321.877V104.697H327.351V70.4334C329.54 74.7027 332.715 77.9867 336.874 80.3949C340.925 82.8032 345.522 83.8979 350.558 83.8979C355.812 83.8979 360.629 82.6938 365.007 80.2855C369.277 77.8772 372.67 74.3742 375.078 69.9956C377.487 65.6169 378.8 60.5814 378.8 54.8891C378.8 49.3063 377.487 44.2708 375.078 39.8921C372.67 35.5135 369.277 32.12 365.007 29.6022ZM362.052 75.9068C358.549 77.9867 354.608 78.9719 350.229 78.9719C345.851 78.9719 341.91 77.9867 338.407 75.9068C334.904 73.9364 332.167 71.0903 330.197 67.3684C328.227 63.756 327.241 59.5962 327.241 54.8891C327.241 50.2915 328.227 46.1318 330.197 42.4099C332.167 38.7975 334.904 35.9513 338.407 33.8715C341.91 31.9011 345.851 30.8064 350.229 30.8064C354.608 30.8064 358.549 31.9011 362.052 33.8715C365.555 35.9513 368.291 38.7975 370.262 42.4099C372.232 46.1318 373.327 50.2915 373.327 54.8891C373.327 59.5962 372.232 63.756 370.262 67.3684C368.291 71.0903 365.555 73.9364 362.052 75.9068Z" fill="#00D5BE" stroke="#00D5BE" stroke-width="4.56112" stroke-miterlimit="2"/>
        <path id="icon" d="M259.531 0C258.518 0.00169615 257.475 0.0132883 257.214 0.0254412C256.953 0.0375942 256.443 0.0740604 256.081 0.106576C255.719 0.139082 255.11 0.197324 254.728 0.235768C254.346 0.2745 253.671 0.350547 253.226 0.40454C252.782 0.458817 252.101 0.548152 251.713 0.603278C251.324 0.658403 250.699 0.753958 250.324 0.815867C249.949 0.877497 249.4 0.973328 249.104 1.02874C248.808 1.08386 248.266 1.19299 247.9 1.27073C247.534 1.34848 246.908 1.4935 246.51 1.59272C246.112 1.69223 245.538 1.84461 245.235 1.93196C244.932 2.01904 244.422 2.17706 244.103 2.28308C243.783 2.3888 243.209 2.58613 242.828 2.72154C242.446 2.85695 241.828 3.08227 241.454 3.22248C241.08 3.36271 240.428 3.61487 240.006 3.78305C239.583 3.95097 238.927 4.2218 238.547 4.38435C238.166 4.54718 237.6 4.79709 237.289 4.93983C236.977 5.08288 236.346 5.38735 235.886 5.61689C235.426 5.84644 234.814 6.16505 234.526 6.32506C234.238 6.48507 233.753 6.76239 233.449 6.94191C233.146 7.12114 232.674 7.40752 232.401 7.57829C232.128 7.74904 231.606 8.08827 231.239 8.33197C230.873 8.57565 230.395 8.90047 230.177 9.05397C229.959 9.20719 229.557 9.49413 229.284 9.69146C229.012 9.88879 228.533 10.245 228.222 10.4827C227.91 10.7205 227.407 11.1123 227.103 11.3537C226.799 11.5948 226.294 12.0042 225.982 12.2634C225.641 12.5461 225.039 13.0974 224.479 13.6405C223.964 14.1383 223.2 14.901 222.78 15.335C222.36 15.7689 221.857 16.295 221.661 16.5045C221.466 16.7137 221.186 17.0185 221.038 17.1819C220.89 17.345 220.61 17.663 220.414 17.8886C220.219 18.1139 219.912 18.4766 219.734 18.6943C219.555 18.912 219.243 19.3126 219.039 19.5848C218.835 19.8568 218.49 20.3275 218.273 20.6308C218.055 20.9339 217.685 21.4619 217.45 21.804C217.215 22.1461 216.826 22.7313 216.585 23.1044C216.344 23.4776 215.987 24.0435 215.792 24.3624C215.597 24.681 215.29 25.1964 215.111 25.5074C214.931 25.8183 214.634 26.3464 214.451 26.6806C214.268 27.0147 213.937 27.6446 213.716 28.0799C213.495 28.5153 213.196 29.1242 213.051 29.4332C212.908 29.7424 212.665 30.3149 212.512 30.7059C212.359 31.0964 212.119 31.7279 211.979 32.1092C211.838 32.49 211.607 33.1454 211.464 33.5649C211.321 33.9844 211.098 34.6713 210.968 35.0913C210.838 35.5107 210.648 36.1534 210.546 36.519C210.444 36.8846 210.297 37.4378 210.219 37.7484C210.141 38.0596 210.027 38.5365 209.965 38.8086C209.903 39.0806 209.788 39.6277 209.71 40.0243C209.632 40.4209 209.523 41.031 209.468 41.3813C209.413 41.7311 209.342 42.2208 209.311 42.4694C209.28 42.7186 209.235 43.1065 209.211 43.3317C209.188 43.557 209.149 44.0024 209.125 44.3212C209.102 44.64 209.075 45.2186 209.067 45.6076C209.058 45.9963 209.038 46.3949 209.023 46.4935C209.003 46.6202 209.004 46.6838 209.026 46.7101C209.045 46.733 209.047 46.7539 209.03 46.7641C209.014 46.774 209.002 47.1638 209 47.7349C208.999 48.2595 209.011 49.2233 209.028 49.8763C209.045 50.5294 209.058 51.0891 209.057 51.1202C209.056 51.1513 209.113 51.8117 209.183 52.5877C209.254 53.3637 209.35 54.248 209.397 54.5525C209.443 54.8572 209.519 55.3353 209.566 55.6151C209.613 55.895 209.703 56.4038 209.765 56.7459C209.828 57.088 209.949 57.7048 210.035 58.117C210.121 58.5289 210.267 59.1904 210.36 59.587C210.453 59.9834 210.6 60.5751 210.686 60.9016C210.772 61.2281 210.931 61.7879 211.041 62.1455C211.15 62.5031 211.416 63.3235 211.631 63.9689C211.847 64.614 212.144 65.4663 212.292 65.863C212.44 66.2596 212.665 66.8417 212.791 67.1566C212.918 67.4715 213.118 67.9549 213.237 68.2309C213.355 68.5068 213.573 68.993 213.722 69.3119C213.87 69.6308 214.175 70.2558 214.4 70.7013C214.624 71.1469 214.978 71.8146 215.185 72.1855C215.392 72.5564 215.667 73.0378 215.797 73.2555C215.927 73.4732 216.181 73.8865 216.36 74.1743C216.539 74.4618 216.864 74.9706 217.082 75.3051C217.299 75.6393 217.681 76.2117 217.932 76.5773C218.182 76.9425 218.571 77.5022 218.797 77.8211C219.023 78.1397 219.31 78.5279 219.436 78.6834C219.562 78.8388 219.85 79.1823 220.077 79.4466C220.305 79.711 220.708 80.1624 220.974 80.4502C221.24 80.7377 221.82 81.3297 222.262 81.7653C222.704 82.2007 223.269 82.7421 223.519 82.9679C223.768 83.1938 224.132 83.5183 224.326 83.6891C224.521 83.8596 224.878 84.1643 225.119 84.3662C225.36 84.568 225.821 84.9429 226.142 85.1996C226.464 85.456 227.082 85.9094 227.517 86.2068C227.952 86.5039 228.607 86.9418 228.973 87.1796C229.339 87.4173 229.907 87.7798 230.234 87.985C230.561 88.1899 231.148 88.5487 231.537 88.7819C231.927 89.0151 232.513 89.3586 232.841 89.5452C233.168 89.7315 233.608 89.9797 233.818 90.0962C234.029 90.2129 234.456 90.4456 234.767 90.6135C235.079 90.7817 235.729 91.1207 236.212 91.3674C236.695 91.614 237.448 91.9888 237.884 92.2005C238.32 92.4123 238.912 92.6927 239.197 92.8239C239.483 92.9551 239.724 93.0557 239.732 93.0478C239.74 93.0393 239.667 92.8638 239.569 92.6571C239.471 92.4502 239.258 92.0145 239.095 91.6886C238.932 91.3626 238.655 90.8283 238.479 90.5012C238.304 90.1741 238.029 89.6774 237.869 89.3976C237.71 89.1177 237.378 88.5698 237.132 88.18C236.887 87.7901 236.438 87.0842 236.135 86.611C235.832 86.1378 235.383 85.4389 235.136 85.0582C234.889 84.6771 234.309 83.7866 233.846 83.0793C233.384 82.3717 232.466 80.9788 231.807 79.9837C231.149 78.9886 229.851 77.0422 228.923 75.6584C227.996 74.2746 227.039 72.8306 226.797 72.4498C226.556 72.0687 226.132 71.3817 225.856 70.9232C225.58 70.4644 225.173 69.7723 224.952 69.3853C224.73 68.998 224.374 68.3557 224.159 67.9577C223.944 67.5597 223.64 66.9858 223.483 66.6827C223.326 66.3797 223.036 65.7942 222.838 65.3823C222.64 64.9701 222.367 64.3849 222.23 64.0819C222.093 63.7788 221.889 63.3144 221.777 63.05C221.664 62.7857 221.483 62.3467 221.374 62.0747C221.265 61.8025 221.08 61.3256 220.963 61.0146C220.846 60.7036 220.619 60.0548 220.458 59.5728C220.297 59.0908 220.083 58.4101 219.982 58.0604C219.882 57.7104 219.741 57.1953 219.67 56.9155C219.599 56.6356 219.489 56.1776 219.427 55.8977C219.364 55.6179 219.269 55.1534 219.215 54.8659C219.161 54.5781 219.084 54.1329 219.045 53.8764C219.005 53.6198 218.953 53.2574 218.93 53.0708C218.906 52.8842 218.868 52.5469 218.845 52.3216C218.822 52.096 218.791 51.7271 218.775 51.5018C218.76 51.2762 218.74 50.8629 218.731 50.583C218.722 50.3031 218.706 49.8833 218.694 49.6501C218.683 49.4169 218.676 48.8571 218.678 48.4062C218.681 47.9553 218.698 47.3192 218.715 46.9927C218.733 46.6662 218.773 46.1 218.803 45.7347C218.834 45.3692 218.885 44.8476 218.917 44.5756C218.948 44.3034 219.012 43.82 219.058 43.5014C219.105 43.1825 219.188 42.6674 219.243 42.3565C219.298 42.0455 219.399 41.5239 219.468 41.1974C219.537 40.8709 219.656 40.3493 219.733 40.0383C219.811 39.7274 219.926 39.2821 219.991 39.0489C220.055 38.8157 220.172 38.4148 220.25 38.1584C220.328 37.902 220.469 37.4629 220.563 37.1831C220.657 36.9032 220.836 36.4006 220.961 36.0664C221.086 35.7323 221.3 35.1915 221.437 34.8649C221.573 34.5384 221.783 34.055 221.903 33.7907C222.023 33.5264 222.269 33.0133 222.449 32.6503C222.63 32.2873 222.91 31.7468 223.073 31.4488C223.236 31.1508 223.484 30.7098 223.625 30.469C223.766 30.2278 224.028 29.7956 224.207 29.5078C224.385 29.22 224.738 28.6795 224.99 28.3063C225.241 27.9332 225.624 27.3861 225.84 27.0907C226.056 26.7953 226.426 26.3068 226.661 26.0054C226.896 25.7038 227.291 25.2142 227.539 24.917C227.788 24.6199 228.132 24.2177 228.304 24.0234C228.476 23.8289 229.015 23.2375 229.501 22.7089C230.139 22.0151 230.554 21.5939 230.99 21.1956C231.322 20.8917 231.823 20.4397 232.104 20.1909C232.384 19.9421 232.799 19.5791 233.025 19.3843C233.251 19.1895 233.659 18.8463 233.932 18.6219C234.204 18.3971 234.58 18.0918 234.767 17.9434C234.954 17.795 235.26 17.5587 235.447 17.4184C235.634 17.2782 235.902 17.0809 236.042 16.98C236.183 16.879 236.489 16.669 236.722 16.5132C236.956 16.3575 237.434 16.0584 237.785 15.8486C238.136 15.6388 238.658 15.3332 238.947 15.1695C239.235 15.0059 239.739 14.7277 240.066 14.5516C240.393 14.3754 241.107 14.0125 241.653 13.7448C242.198 13.4773 242.88 13.1539 243.168 13.0259C243.457 12.8981 243.961 12.6815 244.29 12.545C244.618 12.4084 245.058 12.2329 245.267 12.1551C245.476 12.0771 246.017 11.8987 246.469 11.7582C246.921 11.6177 247.584 11.419 247.943 11.3164C248.301 11.214 248.881 11.0549 249.232 10.9627C249.583 10.8708 250.035 10.7561 250.238 10.7077C250.44 10.6597 250.855 10.565 251.159 10.4971C251.463 10.4295 251.909 10.3354 252.15 10.2882C252.392 10.241 252.704 10.1816 252.844 10.1562C252.985 10.1307 253.252 10.0852 253.439 10.0547C253.626 10.0242 253.945 9.97498 254.148 9.94529C254.35 9.91561 254.733 9.86557 254.998 9.83391C255.263 9.80225 255.69 9.75758 255.947 9.7344C256.204 9.71122 256.682 9.67899 257.01 9.66288C257.337 9.64647 257.783 9.62669 258.001 9.61821C258.219 9.60998 259.099 9.59644 259.956 9.58824C260.873 9.57919 261.876 9.58603 262.393 9.60435C262.876 9.6216 263.546 9.65467 263.881 9.67756C264.216 9.70074 264.751 9.74485 265.071 9.77594C265.39 9.80732 265.9 9.86443 266.204 9.90316C266.508 9.94217 266.973 10.0063 267.238 10.0462C267.503 10.0861 268 10.1697 268.343 10.2319C268.686 10.2941 269.234 10.4018 269.561 10.4714C269.889 10.5409 270.468 10.6746 270.849 10.7685C271.23 10.8624 271.867 11.0323 272.266 11.1462C272.664 11.2601 273.213 11.4255 273.486 11.5137C273.759 11.6019 274.186 11.7441 274.435 11.8298C274.684 11.9154 275.163 12.0879 275.497 12.2131C275.832 12.3383 276.381 12.5543 276.716 12.6931C277.051 12.8319 277.529 13.0358 277.778 13.1457C278.028 13.2557 278.576 13.5096 278.997 13.71C279.417 13.9102 280.042 14.2217 280.385 14.4021C280.728 14.5824 281.236 14.8564 281.513 15.0107C281.791 15.1651 282.25 15.4283 282.533 15.5962C282.817 15.7639 283.265 16.0319 283.53 16.1916C283.795 16.3513 284.183 16.5967 284.393 16.7366C284.602 16.8766 284.94 17.1129 285.144 17.2618C285.347 17.4108 285.654 17.6409 285.825 17.7732C285.997 17.9053 286.328 18.1662 286.562 18.3528C286.796 18.5394 287.178 18.8509 287.412 19.0454C287.646 19.2399 288.015 19.5517 288.234 19.7386C288.452 19.9251 288.936 20.3467 289.31 20.6749C289.791 21.0969 290.186 21.478 290.659 21.9762C291.027 22.3637 291.455 22.8223 291.612 22.995C291.768 23.168 292.09 23.5355 292.327 23.8117C292.565 24.0879 292.964 24.5699 293.215 24.8826C293.465 25.1952 293.857 25.7013 294.085 26.0072C294.314 26.3128 294.652 26.7806 294.838 27.0466C295.024 27.3127 295.337 27.7797 295.536 28.0844C295.734 28.3892 296.039 28.8754 296.214 29.1652C296.389 29.4547 296.671 29.9395 296.841 30.2429C297.011 30.5459 297.356 31.2075 297.608 31.7129C297.861 32.2181 298.171 32.8669 298.299 33.1547C298.426 33.4425 298.625 33.9131 298.742 34.2012C298.859 34.4893 299.033 34.9346 299.129 35.1907C299.225 35.4468 299.403 35.9562 299.526 36.3223C299.649 36.6884 299.833 37.2801 299.936 37.6369C300.039 37.9936 300.2 38.591 300.293 38.9641C300.386 39.3373 300.519 39.9137 300.589 40.2448C300.659 40.5761 300.773 41.1802 300.842 41.5876C300.911 41.995 301 42.5635 301.039 42.8513C301.077 43.1388 301.134 43.6095 301.165 43.8972C301.197 44.1847 301.242 44.6747 301.266 44.9856C301.29 45.2966 301.321 45.7927 301.336 46.0882C301.351 46.3836 301.372 46.9114 301.382 47.2614C301.392 47.6111 301.385 48.4851 301.367 49.2038C301.349 49.9224 301.323 50.5511 301.309 50.6009C301.292 50.66 301.293 50.7041 301.312 50.7267C301.332 50.7508 301.332 50.7677 301.311 50.7801C301.294 50.7906 301.282 50.904 301.282 51.0462C301.282 51.2019 301.264 51.3447 301.235 51.4306L301.188 51.5672L301.237 51.6028L301.286 51.6384L301.03 53.2733C300.89 54.1725 300.761 55.0727 300.743 55.2734C300.726 55.4738 300.686 55.778 300.655 55.9488C300.625 56.1195 300.554 56.4514 300.499 56.6863C300.444 56.9212 300.342 57.3233 300.271 57.5799C300.201 57.8363 300.061 58.3197 299.96 58.6542C299.86 58.9883 299.593 59.8132 299.366 60.4872C299.14 61.1612 298.873 61.9151 298.773 62.1631C298.673 62.4107 298.479 62.8644 298.343 63.1712C298.207 63.4776 297.889 64.142 297.637 64.6474C297.385 65.1526 297.031 65.8285 296.852 66.1494C296.672 66.47 296.408 66.9279 296.265 67.1671C296.122 67.406 295.864 67.8241 295.692 68.0963C295.521 68.3683 295.234 68.8136 295.054 69.0858C294.875 69.3577 294.529 69.8476 294.284 70.1742C294.039 70.5007 293.656 70.9903 293.431 71.2626C293.206 71.5345 292.846 71.9608 292.63 72.2096C292.414 72.4584 291.985 72.9353 291.678 73.2697C291.371 73.6039 290.727 74.2824 290.247 74.7774C289.766 75.2724 289.155 75.8714 288.889 76.1086C288.622 76.3458 288.167 76.7424 287.878 76.9898C287.588 77.2371 287.186 77.5744 286.985 77.7395C286.784 77.9046 286.44 78.1779 286.222 78.3473C286.004 78.5166 285.65 78.7801 285.435 78.933C285.221 79.0857 284.904 79.2991 284.732 79.4074C284.56 79.5154 284.187 79.7265 283.904 79.8764C283.621 80.0259 283.204 80.2563 282.978 80.3881C282.752 80.5198 282.389 80.7443 282.17 80.8868C281.952 81.0295 281.608 81.2715 281.405 81.4248C281.203 81.5777 280.908 81.8149 280.751 81.9517C280.593 82.0883 280.334 82.3376 280.174 82.5055C280.014 82.6734 279.797 82.9253 279.692 83.0653C279.586 83.2052 279.448 83.4054 279.384 83.51C279.32 83.6148 279.222 83.7907 279.166 83.9012C279.11 84.0118 279.021 84.2314 278.968 84.3894C278.915 84.5475 278.851 84.7974 278.825 84.9452C278.788 85.1553 278.781 85.3187 278.793 85.6944C278.803 85.9878 278.832 86.3127 278.87 86.5283C278.903 86.7225 278.949 86.958 278.973 87.0513C278.997 87.1446 279.061 87.3289 279.116 87.4612C279.17 87.5933 279.279 87.8288 279.357 87.9842C279.435 88.1397 279.569 88.3749 279.656 88.5072C279.742 88.6393 279.886 88.8371 279.975 88.9465C280.065 89.056 280.248 89.249 280.382 89.3757C280.516 89.5023 280.743 89.6844 280.887 89.7799C281.03 89.8758 281.245 90.0027 281.364 90.0626C281.483 90.1223 281.712 90.217 281.874 90.273C282.035 90.3289 282.323 90.4064 282.513 90.4446C282.706 90.4836 283.044 90.5251 283.279 90.539C283.511 90.5522 283.842 90.5529 284.015 90.5398C284.188 90.5274 284.462 90.4901 284.623 90.4573C284.785 90.4245 285.057 90.3524 285.229 90.2973C285.401 90.2422 285.678 90.1421 285.844 90.0748C286.009 90.0076 286.275 89.8871 286.435 89.8074C286.594 89.7277 286.975 89.506 287.282 89.3149C287.589 89.1238 288.095 88.7979 288.406 88.5906C288.716 88.3837 289.232 88.0298 289.552 87.8045C289.871 87.5792 290.48 87.1362 290.906 86.8201C291.331 86.5038 291.911 86.0648 292.195 85.8442C292.479 85.6235 293.036 85.1824 293.433 84.8641C293.831 84.5455 294.526 83.9773 294.977 83.6016L295.799 82.918L297.018 81.6911C297.689 81.0163 298.486 80.197 298.789 79.8702C299.093 79.5437 299.501 79.0985 299.696 78.8808C299.891 78.6634 300.172 78.3453 300.321 78.1743C300.469 78.0033 300.713 77.7169 300.861 77.5383C301.01 77.3593 301.284 77.0097 301.471 76.7609C301.658 76.5121 302.034 75.9967 302.307 75.6159C302.58 75.2348 303.014 74.6115 303.272 74.2307C303.529 73.8496 303.891 73.3026 304.074 73.0151C304.258 72.7273 304.595 72.1803 304.824 71.7995C305.053 71.4184 305.368 70.8779 305.524 70.598C305.68 70.3181 305.917 69.8791 306.051 69.6227C306.184 69.366 306.391 68.94 306.511 68.6757C306.63 68.4113 306.842 67.9214 306.983 67.5873C307.124 67.2528 307.34 66.7211 307.463 66.4056C307.585 66.0898 307.795 65.5301 307.929 65.1617C308.064 64.7931 308.312 64.0744 308.483 63.5644C308.653 63.0547 308.933 62.1705 309.104 61.5997C309.291 60.9809 309.467 60.3284 309.541 59.9827C309.609 59.6638 309.742 59.015 309.836 58.5409C309.931 58.0665 310.066 57.3606 310.137 56.9719C310.208 56.5832 310.323 55.9217 310.391 55.5019C310.46 55.0821 310.561 54.4206 310.615 54.0319C310.669 53.6431 310.746 53.0387 310.785 52.689C310.824 52.339 310.875 51.8174 310.899 51.53C310.924 51.2422 310.956 50.7587 310.972 50.4557C310.987 50.1524 311 49.7874 311 49.6446C311 49.4937 310.988 49.3772 310.971 49.3665C310.95 49.3537 310.95 49.3368 310.971 49.3113C310.993 49.2859 310.998 48.766 310.99 47.5823C310.983 46.6517 310.965 45.5466 310.948 45.1268C310.931 44.707 310.904 44.1662 310.888 43.9253C310.871 43.6842 310.838 43.2771 310.814 43.0207C310.79 42.764 310.733 42.2552 310.687 41.8899C310.641 41.5244 310.552 40.9137 310.489 40.533C310.426 40.1519 310.312 39.5285 310.236 39.1477C310.16 38.7667 310.021 38.1244 309.927 37.7201C309.834 37.3158 309.672 36.6605 309.569 36.2642C309.465 35.8676 309.298 35.257 309.197 34.9072C309.096 34.5573 308.943 34.0422 308.857 33.7623C308.771 33.4824 308.621 33.0117 308.523 32.7163C308.425 32.4209 308.24 31.9055 308.111 31.5714C307.982 31.2372 307.764 30.6936 307.626 30.3634C307.488 30.0332 307.265 29.5182 307.131 29.2185C306.996 28.9188 306.69 28.2794 306.451 27.7974C306.213 27.3154 305.907 26.7175 305.772 26.4687C305.637 26.2199 305.418 25.8255 305.285 25.5923C305.152 25.3591 304.902 24.9328 304.73 24.6453C304.558 24.3575 304.271 23.8933 304.093 23.6134C303.914 23.3335 303.596 22.8501 303.385 22.5392C303.174 22.2282 302.846 21.7575 302.656 21.4932C302.467 21.2288 302.218 20.8727 302.103 20.7016C301.989 20.5306 301.751 20.1993 301.576 19.9652C301.4 19.7311 301.087 19.3367 300.881 19.0888C300.675 18.8409 300.321 18.4281 300.094 18.172C299.867 17.9156 299.509 17.5215 299.299 17.296C299.088 17.0704 298.589 16.5488 298.189 16.1363C297.789 15.7242 297.024 14.9648 296.489 14.4489C295.879 13.8617 295.276 13.311 294.873 12.976C294.519 12.6814 293.952 12.2184 293.612 11.947C293.272 11.6753 292.72 11.2431 292.385 10.9861C292.05 10.7294 291.566 10.3667 291.308 10.1801C291.051 9.99354 290.605 9.67721 290.317 9.47734C290.029 9.27748 289.563 8.96594 289.283 8.78473C289.002 8.60352 288.481 8.28124 288.125 8.06837C287.769 7.8555 287.259 7.55641 286.992 7.40347C286.725 7.25053 286.341 7.03342 286.139 6.92091C285.938 6.80839 285.511 6.57573 285.19 6.40442C284.869 6.23282 284.18 5.87944 283.658 5.61881C283.136 5.35844 282.512 5.0531 282.27 4.94064C282.028 4.82784 281.533 4.60366 281.169 4.44196C280.804 4.28026 280.243 4.03883 279.922 3.90539C279.6 3.77167 279.044 3.54778 278.686 3.40784C278.327 3.2679 277.811 3.07962 277.538 2.98916C277.266 2.89898 276.706 2.72229 276.296 2.59649C275.886 2.47098 275.197 2.26743 274.766 2.14474C274.335 2.02176 273.765 1.86374 273.5 1.79334C273.236 1.72295 272.713 1.58895 272.339 1.49566C271.965 1.40237 271.378 1.26215 271.035 1.18412C270.693 1.10581 270.062 0.9721 269.633 0.886442C269.205 0.800783 268.554 0.679786 268.188 0.617313C267.822 0.554835 267.35 0.478792 267.14 0.44826C266.929 0.417449 266.502 0.360623 266.19 0.321895C265.879 0.282883 265.426 0.231429 265.184 0.207115C264.943 0.183089 264.484 0.144069 264.164 0.120607C263.845 0.0974286 263.252 0.071419 262.847 0.0632181C262.442 0.0549918 262.016 0.0349522 261.902 0.0185504C261.774 0.000460907 261.683 -0.000956751 261.667 0.0151567C261.652 0.0301422 261.584 0.0318381 261.507 0.0191424C261.434 0.00711668 260.545 -0.00136293 259.532 0.000333221L259.531 0ZM258.574 13.5955C258.524 13.5977 258.349 13.6099 258.185 13.6223C258.021 13.6351 257.639 13.6662 257.335 13.691C257.031 13.7162 256.381 13.7809 255.89 13.8349C255.399 13.8889 254.691 13.9771 254.317 14.0311C253.943 14.0848 253.418 14.1671 253.15 14.2137C252.882 14.2607 252.41 14.3503 252.102 14.4133C251.793 14.4761 251.321 14.5784 251.052 14.6406C250.784 14.7025 250.281 14.8283 249.933 14.9196C249.586 15.011 249.085 15.1512 248.82 15.2309C248.556 15.3106 248.053 15.4712 247.704 15.5877C247.354 15.7041 246.817 15.8941 246.51 16.0097C246.203 16.1254 245.692 16.3266 245.375 16.4572C245.057 16.5879 244.548 16.8067 244.245 16.9435C243.941 17.0803 243.322 17.3783 242.87 17.6056C242.418 17.8329 241.813 18.1507 241.524 18.3115C241.236 18.4723 240.746 18.7556 240.436 18.941C240.126 19.1262 239.616 19.4434 239.303 19.6458C238.99 19.8482 238.53 20.1547 238.28 20.3271C238.031 20.4996 237.61 20.7992 237.345 20.9932C237.08 21.1868 236.679 21.4893 236.453 21.6651C236.227 21.8407 235.863 22.1463 235.645 22.3445C235.427 22.5424 234.994 22.9407 234.683 23.2293C234.372 23.5182 233.849 24.0158 233.521 24.3353C233.193 24.6547 232.721 25.1254 232.471 25.3812C232.221 25.6371 231.908 25.9673 231.775 26.1151C231.642 26.2627 231.444 26.4917 231.334 26.624C231.224 26.7563 230.949 27.106 230.723 27.4014C230.497 27.6968 230.164 28.1457 229.982 28.3991C229.8 28.6521 229.507 29.0719 229.33 29.332C229.153 29.5918 228.902 29.9697 228.773 30.1719C228.644 30.374 228.415 30.7429 228.264 30.9917C228.112 31.2405 227.912 31.5774 227.818 31.7409C227.724 31.904 227.542 32.2285 227.414 32.4617C227.285 32.695 226.999 33.2482 226.778 33.6915C226.558 34.1348 226.264 34.7516 226.127 35.0626C225.989 35.3735 225.782 35.8595 225.668 36.1425C225.553 36.4252 225.378 36.8769 225.279 37.1461C225.18 37.4149 225.002 37.9277 224.884 38.2853C224.766 38.643 224.585 39.2329 224.482 39.5965C224.378 39.9598 224.238 40.4879 224.17 40.7697C224.102 41.0513 223.989 41.5553 223.919 41.8898C223.849 42.2239 223.747 42.7647 223.692 43.0912C223.637 43.4177 223.566 43.8692 223.534 44.0948C223.503 44.3201 223.451 44.7337 223.42 45.0136C223.389 45.2934 223.345 45.7576 223.322 46.0454C223.298 46.3329 223.265 46.8229 223.247 47.1338C223.229 47.4448 223.214 48.2398 223.214 48.9007C223.214 49.5614 223.229 50.3628 223.247 50.6817C223.265 51.0003 223.298 51.4837 223.321 51.756C223.344 52.0279 223.383 52.4288 223.406 52.6465C223.43 52.8641 223.482 53.2774 223.52 53.5652C223.56 53.8527 223.629 54.3107 223.675 54.583C223.721 54.8549 223.797 55.2747 223.845 55.5159C223.893 55.7567 223.976 56.1511 224.031 56.3922C224.086 56.6331 224.176 57.0085 224.23 57.2262C224.285 57.4439 224.413 57.9081 224.514 58.258C224.615 58.6077 224.762 59.0911 224.841 59.3323C224.919 59.5731 225.051 59.9486 225.134 60.1663C225.217 60.3839 225.357 60.7336 225.445 60.9437C225.534 61.1534 225.702 61.5351 225.819 61.7918C225.936 62.0482 226.247 62.6843 226.51 63.2053C226.773 63.726 227.162 64.4703 227.374 64.8591C227.587 65.2478 227.959 65.9093 228.2 66.3291C228.442 66.7489 228.787 67.3406 228.968 67.6436C229.148 67.9467 229.486 68.5067 229.719 68.8875C229.952 69.2683 230.374 69.9491 230.658 70.4C230.941 70.8509 231.406 71.5813 231.691 72.0232C231.976 72.4651 232.55 73.3429 232.966 73.9739C233.383 74.6049 234.005 75.5536 234.347 76.0822C234.69 76.6108 235.525 77.9085 236.203 78.9657C236.881 80.023 238.283 82.2173 239.319 83.8423C240.354 85.467 242.406 88.692 243.878 91.0089C245.35 93.3256 246.574 95.2418 246.6 95.2672C246.627 95.2941 246.895 95.3738 247.237 95.4566C247.563 95.5352 248.064 95.6457 248.352 95.7017C248.639 95.7577 249.258 95.866 249.726 95.942C250.194 96.0183 250.851 96.119 251.186 96.1659C251.521 96.2128 252.203 96.3022 252.702 96.3649C253.201 96.4274 254.004 96.5227 254.487 96.5767C254.97 96.6307 255.806 96.7194 256.343 96.774C256.881 96.8285 257.67 96.9063 258.096 96.9467C258.613 96.9959 258.881 97.0109 258.9 96.9923C258.919 96.9733 258.718 96.6024 258.297 95.8804C257.95 95.2847 257.328 94.2246 256.915 93.5249C256.502 92.8252 255.728 91.5212 255.195 90.6273C254.661 89.7331 253.945 88.5373 253.603 87.9699C253.26 87.4023 252.629 86.3591 252.201 85.6517C251.772 84.9441 251.009 83.6912 250.506 82.8672C250.003 82.0431 249.176 80.6946 248.669 79.8706C248.163 79.0465 247.299 77.6454 246.749 76.7572C246.2 75.8689 245.206 74.266 244.54 73.1952C243.874 72.1243 242.596 70.0779 241.7 68.6474C240.804 67.2169 239.73 65.5058 239.314 64.8451C238.898 64.1842 238.385 63.383 238.175 63.0641C237.965 62.7452 237.679 62.3 237.538 62.0747C237.398 61.8491 237.142 61.423 236.969 61.1276C236.797 60.8322 236.533 60.3615 236.383 60.0816C236.233 59.8018 235.988 59.3245 235.839 59.0215C235.69 58.7182 235.469 58.2475 235.348 57.9755C235.227 57.7033 235.05 57.2869 234.954 57.0497C234.858 56.8125 234.705 56.4116 234.613 56.1592C234.522 55.9064 234.383 55.4963 234.304 55.2475C234.225 54.9987 234.123 54.6614 234.076 54.4983C234.029 54.3349 233.946 54.0234 233.892 53.8057C233.837 53.588 233.755 53.2253 233.708 53C233.661 52.7744 233.597 52.4375 233.566 52.2509C233.534 52.0643 233.489 51.7779 233.466 51.6148C233.442 51.4514 233.403 51.1206 233.38 50.8798C233.356 50.6386 233.323 50.2061 233.307 49.9186C233.291 49.6308 233.278 48.9311 233.279 48.3637C233.279 47.7961 233.292 47.1029 233.308 46.823C233.324 46.5432 233.357 46.1234 233.38 45.8901C233.404 45.6569 233.455 45.256 233.493 44.9996C233.531 44.7429 233.608 44.3042 233.663 44.0243C233.719 43.7444 233.822 43.2868 233.891 43.0069C233.961 42.7273 234.07 42.3202 234.133 42.1023C234.196 41.8846 234.311 41.5089 234.39 41.268C234.468 41.0269 234.6 40.6452 234.682 40.4199C234.765 40.1943 234.905 39.8254 234.994 39.6001C235.083 39.3745 235.226 39.031 235.312 38.8368C235.397 38.6423 235.586 38.2482 235.732 37.9604C235.877 37.6726 236.11 37.2381 236.25 36.9947C236.39 36.751 236.639 36.3374 236.802 36.0759C236.965 35.8142 237.255 35.3771 237.446 35.1052C237.637 34.8329 237.934 34.4258 238.107 34.2005C238.279 33.9749 238.607 33.5679 238.836 33.2959C239.064 33.0236 239.483 32.5402 239.767 32.2216C240.05 31.9027 240.521 31.4021 240.812 31.1089C241.102 30.8158 241.519 30.4141 241.737 30.2167C241.955 30.0191 242.287 29.7305 242.474 29.5747C242.661 29.4192 242.966 29.1739 243.152 29.0297C243.338 28.8852 243.688 28.6263 243.931 28.4538C244.174 28.2814 244.551 28.0241 244.769 27.8819C244.987 27.74 245.369 27.5017 245.619 27.3527C245.868 27.2034 246.27 26.9719 246.511 26.8379C246.753 26.7039 247.256 26.443 247.63 26.2584C248.004 26.0735 248.534 25.8244 248.806 25.7049C249.079 25.585 249.525 25.3981 249.797 25.2896C250.069 25.181 250.445 25.0346 250.633 24.9645C250.82 24.8941 251.269 24.7369 251.63 24.6148C251.991 24.4929 252.539 24.3168 252.848 24.2235C253.158 24.1302 253.564 24.0149 253.75 23.9668C253.937 23.9188 254.371 23.8235 254.714 23.7551C255.057 23.6864 255.637 23.5858 256.003 23.5312C256.369 23.4769 257 23.3944 257.406 23.348C257.811 23.3019 258.221 23.2556 258.316 23.2454C258.418 23.2346 258.497 23.2383 258.507 23.2539C258.517 23.2703 258.572 23.2717 258.645 23.2575C258.711 23.2448 258.991 23.2338 259.265 23.2329C259.715 23.2318 259.767 23.2267 259.785 23.1823L259.804 23.1328L259.84 23.1823C259.871 23.2236 259.923 23.2318 260.161 23.2318C260.406 23.2318 260.448 23.225 260.465 23.1823L260.484 23.1328L260.52 23.1823C260.541 23.2094 260.59 23.2318 260.63 23.2318C260.671 23.2318 260.716 23.2094 260.732 23.1823L260.76 23.1328L260.779 23.1823C260.796 23.2264 260.845 23.2318 261.241 23.2321C261.485 23.2321 261.901 23.2448 262.166 23.2603C262.431 23.2756 262.794 23.3013 262.973 23.3174C263.153 23.3335 263.465 23.3658 263.668 23.389C263.87 23.4124 264.246 23.4636 264.503 23.5029C264.761 23.5425 265.226 23.6253 265.538 23.6872C265.849 23.7491 266.379 23.8684 266.713 23.9521C267.048 24.0355 267.539 24.1689 267.804 24.2484C268.069 24.3278 268.496 24.4641 268.753 24.5509C269.01 24.6379 269.438 24.792 269.703 24.8932C269.968 24.9944 270.376 25.1567 270.609 25.2536C270.843 25.3509 271.238 25.5231 271.488 25.6364C271.737 25.7498 272.247 25.9974 272.621 26.1863C272.995 26.3754 273.569 26.6804 273.895 26.8644C274.222 27.0482 274.63 27.284 274.802 27.3877C274.974 27.4918 275.338 27.7143 275.61 27.8819C275.883 28.0495 276.24 28.2757 276.403 28.3845C276.567 28.4937 276.828 28.6788 276.984 28.7964C277.14 28.914 277.37 29.0933 277.495 29.1947C277.619 29.2962 277.887 29.5213 278.09 29.6948C278.292 29.8687 278.579 30.1217 278.727 30.2574C278.875 30.3934 279.286 30.7891 279.639 31.1372C279.993 31.4854 280.433 31.9386 280.618 32.1444C280.803 32.3499 281.069 32.6519 281.208 32.8153C281.348 32.9784 281.616 33.3029 281.803 33.5361C281.991 33.7694 282.259 34.1128 282.399 34.2994C282.54 34.486 282.783 34.823 282.94 35.0486C283.097 35.2739 283.317 35.6035 283.429 35.7807C283.541 35.9583 283.725 36.2636 283.838 36.4592C283.951 36.6551 284.16 37.0585 284.303 37.3559C284.445 37.653 284.64 38.0728 284.736 38.2888C284.831 38.5045 284.986 38.8655 285.08 39.0911C285.173 39.3164 285.32 39.6854 285.406 39.9109C285.491 40.1363 285.637 40.5434 285.73 40.8156C285.822 41.0875 285.954 41.5011 286.023 41.7344C286.092 41.9676 286.2 42.3682 286.264 42.6249C286.327 42.8813 286.417 43.2948 286.464 43.5436C286.511 43.7924 286.574 44.1868 286.603 44.42C286.633 44.6532 286.671 45.0538 286.688 45.3105C286.704 45.5669 286.726 45.9231 286.738 46.1021C286.749 46.2807 286.758 47.076 286.758 47.8689C286.758 48.6619 286.748 49.4252 286.738 49.5651C286.727 49.7051 286.705 49.9977 286.689 50.2153C286.673 50.433 286.634 50.8209 286.602 51.0776C286.569 51.334 286.487 51.8748 286.419 52.279C286.351 52.6833 286.25 53.2493 286.193 53.537C286.137 53.8245 286.021 54.2952 285.934 54.583C285.849 54.8705 285.676 55.4113 285.551 55.7845C285.426 56.1577 285.228 56.716 285.112 57.025C284.995 57.3342 284.806 57.8049 284.692 58.0709C284.578 58.3373 284.388 58.752 284.271 58.9931C284.153 59.234 283.908 59.7112 283.727 60.0533C283.545 60.3953 283.307 60.8278 283.197 61.0144C283.087 61.201 282.854 61.5699 282.679 61.8343C282.505 62.0986 282.231 62.493 282.07 62.7106C281.91 62.9283 281.611 63.3162 281.404 63.5729C281.198 63.8293 280.871 64.2239 280.677 64.4492C280.483 64.6745 280.107 65.0944 279.842 65.3821C279.576 65.6696 279.163 66.0849 278.923 66.3049C278.683 66.5245 278.371 66.8024 278.231 66.9223C278.091 67.0422 277.826 67.2567 277.642 67.3989C277.458 67.5414 277.19 67.7384 277.047 67.8368C276.904 67.9352 276.652 68.0952 276.489 68.1927C276.325 68.29 275.939 68.4918 275.631 68.6411C275.323 68.7904 274.953 68.9789 274.809 69.0601C274.665 69.1412 274.386 69.3134 274.189 69.4426C273.992 69.5717 273.699 69.7824 273.537 69.9101C273.376 70.0382 273.131 70.2516 272.993 70.3845C272.855 70.5174 272.639 70.7534 272.513 70.9089C272.388 71.0644 272.231 71.2747 272.165 71.3762C272.1 71.478 271.982 71.6878 271.903 71.8427C271.825 71.9979 271.716 72.2549 271.661 72.4137C271.606 72.5729 271.534 72.84 271.501 73.0074C271.468 73.175 271.434 73.458 271.426 73.6369L271.412 73.9621L271.543 74.7395L271.674 75.5169L271.799 75.7945C271.867 75.9472 271.997 76.2056 272.088 76.3687C272.179 76.5318 272.353 76.8003 272.476 76.9652C272.598 77.1303 272.816 77.3807 272.96 77.5218C273.104 77.6629 273.325 77.8526 273.451 77.9427C273.577 78.0332 273.814 78.1766 273.976 78.2611C274.139 78.3459 274.429 78.4666 274.62 78.5294C274.812 78.5921 275.116 78.6701 275.296 78.7032C275.57 78.7529 275.736 78.7632 276.29 78.7634C276.856 78.7639 277.007 78.7547 277.296 78.7018C277.483 78.6675 277.802 78.5822 278.005 78.5118C278.207 78.4417 278.469 78.3603 278.585 78.3309C278.702 78.3014 278.906 78.2311 279.039 78.1745C279.171 78.118 279.363 78.0264 279.464 77.9707C279.565 77.915 279.763 77.7991 279.903 77.7135C280.043 77.6278 280.292 77.4684 280.455 77.3592C280.619 77.2498 280.909 77.0477 281.1 76.9097C281.291 76.7718 281.654 76.4984 281.908 76.3025C282.161 76.1066 282.61 75.7481 282.906 75.5064C283.202 75.2644 283.706 74.8443 284.026 74.5724C284.345 74.3004 284.804 73.9041 285.046 73.6915C285.287 73.4786 285.874 72.9118 286.349 72.4318C286.825 71.9518 287.415 71.3392 287.659 71.0706C287.904 70.8018 288.304 70.3503 288.548 70.0671C288.792 69.7838 289.168 69.3337 289.383 69.0671C289.599 68.8005 289.971 68.3236 290.209 68.007C290.448 67.6907 290.817 67.1827 291.03 66.8782C291.243 66.5737 291.559 66.1056 291.732 65.8373C291.905 65.5693 292.198 65.0997 292.382 64.7935C292.566 64.4877 292.834 64.0272 292.977 63.7707C293.12 63.5141 293.394 62.9925 293.587 62.6117C293.779 62.2306 294.032 61.709 294.149 61.4526C294.266 61.1959 294.458 60.7572 294.575 60.4773C294.693 60.1974 294.88 59.727 294.99 59.4322C295.102 59.137 295.28 58.6347 295.387 58.3155C295.494 57.9963 295.652 57.4935 295.738 57.198C295.824 56.9026 295.945 56.4635 296.007 56.2227C296.069 55.9815 296.178 55.5236 296.249 55.205C296.32 54.8861 296.422 54.3837 296.476 54.0883C296.53 53.7929 296.613 53.2902 296.66 52.9716C296.707 52.6527 296.777 52.093 296.815 51.7278C296.854 51.3622 296.899 50.8726 296.916 50.6394C296.933 50.4061 296.959 49.929 296.975 49.5792C296.99 49.2293 297.003 48.3198 297.002 47.558L297.002 46.1727L296.93 45.4518C296.891 45.0552 296.814 44.381 296.76 43.9535C296.706 43.5258 296.611 42.8688 296.55 42.4934C296.488 42.118 296.387 41.5583 296.324 41.2495C296.262 40.9408 296.153 40.4532 296.082 40.1654C296.011 39.8776 295.894 39.445 295.822 39.2042C295.751 38.9631 295.591 38.4862 295.468 38.1441C295.344 37.802 295.153 37.2804 295.043 36.985C294.933 36.6896 294.748 36.2192 294.632 35.9399C294.515 35.6603 294.324 35.2215 294.206 34.9646C294.089 34.7076 293.842 34.1984 293.657 33.8329C293.473 33.4674 293.212 32.9712 293.077 32.7304C292.942 32.4892 292.729 32.1206 292.603 31.9106C292.477 31.7005 292.241 31.3189 292.078 31.0625C291.914 30.8061 291.695 30.4688 291.591 30.3133C291.486 30.1578 291.266 29.8271 291.1 29.5783C290.935 29.3295 290.651 28.9351 290.469 28.7019C290.287 28.4687 290.01 28.1252 289.853 27.9386C289.697 27.7521 289.421 27.434 289.242 27.2319C289.062 27.0298 288.692 26.6227 288.419 26.3273C288.146 26.0318 287.342 25.2095 286.633 24.4999C285.764 23.6303 285.175 23.0674 284.828 22.7732C284.545 22.5329 284.079 22.1456 283.794 21.9124C283.508 21.6791 283.043 21.308 282.76 21.0875C282.476 20.867 281.998 20.5074 281.697 20.2883C281.396 20.0695 280.837 19.6833 280.455 19.4303C280.074 19.1775 279.589 18.868 279.379 18.743C279.168 18.6178 278.799 18.4052 278.557 18.2706C278.316 18.1361 277.755 17.8449 277.31 17.6235C276.866 17.4022 276.25 17.1096 275.94 16.9736C275.63 16.8374 275.108 16.6169 274.778 16.4837C274.449 16.3506 274.014 16.1787 273.811 16.1015C273.609 16.0246 273.213 15.8787 272.933 15.7775C272.652 15.6763 272.085 15.4798 271.672 15.3408C271.259 15.2017 270.749 15.0448 270.539 14.9919C270.328 14.9391 269.825 14.8195 269.419 14.7262C269.014 14.6329 268.338 14.4867 267.918 14.4014C267.497 14.316 266.866 14.195 266.515 14.1322C266.165 14.0697 265.578 13.9739 265.212 13.9194C264.846 13.8651 264.316 13.7944 264.036 13.7627C263.755 13.7311 263.303 13.6867 263.03 13.6641C262.757 13.6418 262.367 13.6146 262.163 13.6041L261.792 13.5849L261.772 13.6378L261.751 13.6906L261.723 13.6412L261.695 13.5917H258.721L258.693 13.6412L258.664 13.6906L258.663 13.6412C258.662 13.6036 258.64 13.5926 258.57 13.5957L258.574 13.5955ZM259.461 27.4482C259.453 27.4508 259.401 27.4573 259.347 27.4629C259.292 27.4683 258.903 27.5051 258.482 27.5446C258.062 27.5839 257.513 27.6419 257.264 27.6733C257.015 27.7049 256.67 27.7555 256.499 27.7863C256.328 27.8169 256.06 27.8542 255.904 27.8695C255.748 27.8847 255.5 27.9172 255.351 27.9416C255.204 27.9661 254.866 28.0408 254.601 28.1081C254.336 28.1751 253.891 28.302 253.612 28.3899C253.333 28.4778 252.829 28.6494 252.493 28.7713C252.156 28.8931 251.651 29.082 251.371 29.1908C251.09 29.2996 250.606 29.4927 250.296 29.6199C249.985 29.7471 249.569 29.9323 249.371 30.0313C249.173 30.1305 248.847 30.3055 248.647 30.4205C248.446 30.5356 248.116 30.7352 247.914 30.8641C247.711 30.993 247.354 31.2322 247.12 31.3958C246.887 31.5595 246.543 31.8088 246.356 31.9502C246.169 32.0915 245.794 32.3884 245.523 32.6097C245.252 32.8311 244.802 33.2104 244.524 33.453C244.246 33.6955 243.892 34.0232 243.737 34.1812C243.582 34.3395 243.311 34.6341 243.134 34.8363C242.957 35.0384 242.693 35.3502 242.546 35.5289C242.399 35.7075 242.118 36.0702 241.92 36.3346C241.722 36.5989 241.42 37.0252 241.249 37.2816C241.078 37.538 240.849 37.8945 240.74 38.0732C240.631 38.2518 240.429 38.6018 240.291 38.8506C240.153 39.0994 239.936 39.5191 239.808 39.7835C239.68 40.0478 239.503 40.4357 239.413 40.6457C239.323 40.8558 239.19 41.1863 239.116 41.3807C239.043 41.575 238.905 41.9693 238.81 42.2571C238.716 42.5446 238.587 42.9709 238.525 43.2042C238.462 43.4374 238.379 43.7681 238.34 43.9392C238.301 44.1102 238.237 44.4158 238.198 44.6182C238.159 44.8206 238.101 45.1514 238.07 45.3532C238.039 45.5551 237.988 45.9491 237.956 46.229C237.925 46.5089 237.886 46.9412 237.87 47.1897C237.854 47.4381 237.841 48.0465 237.841 48.5415C237.841 49.0362 237.854 49.6279 237.871 49.8564C237.887 50.0848 237.926 50.5006 237.957 50.7805C237.988 51.0604 238.052 51.5119 238.098 51.7841C238.145 52.0561 238.228 52.4824 238.283 52.7312C238.338 52.9799 238.447 53.4187 238.525 53.7065C238.603 53.994 238.741 54.452 238.832 54.7242C238.922 54.9964 239.092 55.4609 239.208 55.756C239.325 56.0515 239.505 56.4795 239.607 56.7073C239.709 56.9352 239.904 57.3423 240.039 57.6119C240.174 57.8816 240.381 58.2741 240.498 58.4841C240.616 58.6939 240.832 59.0628 240.979 59.3039C241.126 59.5448 241.515 60.1356 241.843 60.6165C242.172 61.0974 242.76 61.9687 243.151 62.553C243.542 63.137 244.103 63.984 244.398 64.4349C244.693 64.8858 245.182 65.6423 245.486 66.1164C245.789 66.5902 246.227 67.2809 246.459 67.6515C246.692 68.0218 247.083 68.6519 247.329 69.0514C247.575 69.4511 248.07 70.2676 248.429 70.8663C248.787 71.4648 249.783 73.125 250.641 74.5555C251.499 75.986 252.621 77.8433 253.134 78.6829C253.647 79.5225 254.326 80.6293 254.643 81.1424C254.96 81.6555 255.617 82.7114 256.102 83.4888C256.588 84.2662 257.291 85.3857 257.666 85.9766C258.04 86.5674 258.608 87.4579 258.927 87.9555C259.246 88.453 259.718 89.1843 259.974 89.581C260.231 89.9773 260.708 90.7089 261.033 91.2065C261.359 91.7041 262.112 92.8362 262.706 93.7225C263.301 94.6088 263.971 95.6036 264.195 95.9332L264.602 96.5325L265.013 96.5342C265.239 96.5351 265.673 96.5164 265.977 96.4927C266.281 96.4689 266.752 96.424 267.025 96.3923C267.298 96.3606 267.776 96.2971 268.088 96.251C268.399 96.2049 268.909 96.122 269.221 96.0669C269.533 96.0115 270.132 95.8962 270.553 95.8105C270.973 95.7249 271.649 95.579 272.054 95.4863C272.459 95.3935 273.25 95.2021 273.811 95.0611C274.372 94.92 274.847 94.7959 274.867 94.7852C274.893 94.7713 274.659 94.3555 274.07 93.368C273.612 92.5991 272.862 91.3467 272.402 90.5849C271.943 89.823 271.153 88.5189 270.646 87.6872C270.14 86.8552 269.391 85.6291 268.982 84.9622C268.573 84.2951 267.88 83.1693 267.443 82.4604C267.006 81.7511 266.151 80.3695 265.543 79.39C264.935 78.4104 263.562 76.2096 262.492 74.4993C261.422 72.7889 259.751 70.1302 258.78 68.5911C257.809 67.0518 256.255 64.5965 255.329 63.1349C254.401 61.6733 253.385 60.1021 253.07 59.6435C252.754 59.1847 252.331 58.5551 252.13 58.2442C251.928 57.9332 251.609 57.4291 251.42 57.1239C251.231 56.8188 250.928 56.31 250.746 55.9931C250.564 55.6764 250.271 55.1435 250.094 54.8094C249.917 54.475 249.652 53.9406 249.505 53.622C249.358 53.3032 249.149 52.8198 249.04 52.5478C248.931 52.2756 248.771 51.8368 248.684 51.5725C248.598 51.3082 248.488 50.9393 248.442 50.7527C248.395 50.5661 248.331 50.2735 248.3 50.1024C248.268 49.9314 248.227 49.6586 248.209 49.4961C248.187 49.3027 248.181 48.9414 248.191 48.4501C248.2 48.0373 248.227 47.5342 248.252 47.332C248.276 47.1299 248.329 46.7864 248.368 46.5687C248.408 46.351 248.485 45.9948 248.539 45.7772C248.594 45.5595 248.707 45.175 248.792 44.9231C248.876 44.6709 249.01 44.3082 249.091 44.1174C249.171 43.9263 249.337 43.5727 249.46 43.3318C249.582 43.0907 249.764 42.7577 249.865 42.5917C249.965 42.4255 250.127 42.171 250.224 42.0263C250.321 41.8813 250.506 41.6229 250.635 41.4519C250.764 41.2808 250.954 41.0394 251.058 40.915C251.162 40.7909 251.352 40.5953 251.479 40.4802C251.606 40.3652 251.832 40.1698 251.98 40.0457C252.128 39.9219 252.421 39.6909 252.631 39.5327C252.842 39.3743 253.141 39.1603 253.297 39.0572C253.453 38.954 253.721 38.7852 253.892 38.6823C254.064 38.5797 254.389 38.4019 254.615 38.2874C254.841 38.1732 255.166 38.0196 255.337 37.9467C255.509 37.8738 255.815 37.7573 256.017 37.688C256.22 37.6185 256.551 37.5184 256.754 37.4658C256.957 37.413 257.224 37.3494 257.349 37.3245C257.473 37.2993 257.704 37.2609 257.861 37.2388C258.018 37.2168 258.318 37.186 258.527 37.1707C258.736 37.1552 259.016 37.1413 259.148 37.1396C259.281 37.1379 259.492 37.1238 259.619 37.1082C259.776 37.089 260.05 37.0896 260.48 37.1104C260.827 37.1274 261.29 37.1608 261.511 37.1845C261.731 37.2082 262.1 37.2591 262.331 37.2976C262.562 37.336 262.868 37.3934 263.011 37.4251C263.154 37.4564 263.436 37.5277 263.638 37.5828C263.84 37.6382 264.172 37.7411 264.375 37.8115C264.578 37.8816 264.923 38.0151 265.141 38.1075C265.359 38.1999 265.678 38.3495 265.85 38.44C266.021 38.5301 266.283 38.6771 266.431 38.7665C266.578 38.8558 266.827 39.0155 266.982 39.1213C267.138 39.2273 267.425 39.4588 267.62 39.6358C267.815 39.813 268.151 40.1412 268.368 40.3657C268.584 40.5899 268.902 40.9418 269.075 41.1479C269.247 41.354 269.503 41.6811 269.644 41.8748C269.785 42.0684 270.004 42.3896 270.131 42.5886C270.258 42.7873 270.444 43.1045 270.546 43.2934C270.648 43.4822 270.814 43.8192 270.915 44.0425C271.016 44.2658 271.158 44.6105 271.23 44.8083C271.301 45.0062 271.411 45.3469 271.473 45.5654C271.534 45.7837 271.623 46.156 271.669 46.3929C271.715 46.6295 271.776 47.0012 271.804 47.2189C271.846 47.5378 271.856 47.8123 271.856 48.6324C271.856 49.4587 271.846 49.714 271.805 49.9894C271.778 50.1759 271.73 50.462 271.698 50.6254C271.667 50.7886 271.603 51.0749 271.556 51.2615C271.509 51.4481 271.386 51.8541 271.283 52.1636C271.155 52.5503 271.027 52.8647 270.876 53.1672C270.755 53.4097 270.562 53.7493 270.447 53.9217C270.331 54.0945 270.136 54.3616 270.013 54.5154C269.89 54.6695 269.598 54.9864 269.364 55.2202C269.129 55.4537 268.778 55.772 268.583 55.9275C268.389 56.0829 267.949 56.4095 267.606 56.6531C267.263 56.8968 266.798 57.2462 266.572 57.4297C266.346 57.6132 265.949 57.9733 265.691 58.23C265.433 58.4864 265.135 58.8044 265.03 58.9367C264.925 59.0688 264.75 59.3093 264.641 59.471C264.532 59.633 264.386 59.8778 264.317 60.0155C264.248 60.1529 264.152 60.363 264.105 60.4823C264.057 60.6013 263.986 60.8271 263.947 60.9841C263.896 61.1865 263.871 61.3793 263.86 61.6506C263.848 61.9644 263.856 62.097 263.907 62.3964C263.941 62.5968 264.007 62.8871 264.053 63.0421C264.099 63.1967 264.214 63.4763 264.308 63.6637C264.402 63.8508 264.551 64.1197 264.638 64.261C264.726 64.4027 264.878 64.6243 264.976 64.7538C265.074 64.8832 265.227 65.0724 265.317 65.1744C265.407 65.2765 265.589 65.4543 265.722 65.5699C265.854 65.6855 266.071 65.8543 266.203 65.9453C266.336 66.0361 266.561 66.1695 266.705 66.2419C266.849 66.3142 267.051 66.405 267.154 66.444C267.258 66.4828 267.464 66.5461 267.612 66.5845C267.76 66.6229 268.027 66.6736 268.205 66.6967C268.384 66.7202 268.694 66.7392 268.895 66.7392C269.096 66.7392 269.411 66.7197 269.595 66.6962C269.779 66.6724 270.082 66.6162 270.269 66.5709C270.456 66.526 270.749 66.442 270.921 66.3843C271.092 66.3269 271.405 66.2043 271.615 66.1121C271.826 66.0197 272.151 65.8605 272.338 65.7582C272.525 65.6561 272.773 65.5148 272.89 65.4446C273.007 65.3743 273.253 65.2168 273.436 65.0944C273.619 64.972 273.951 64.7362 274.173 64.5703C274.421 64.3848 274.749 64.0999 275.026 63.8291C275.273 63.5871 275.667 63.1856 275.902 62.9369C276.136 62.6881 276.489 62.2999 276.685 62.0746C276.881 61.849 277.17 61.5056 277.326 61.3114C277.483 61.1169 277.727 60.8048 277.868 60.6173C278.009 60.4302 278.262 60.0802 278.429 59.8399C278.596 59.5996 278.863 59.1931 279.023 58.9367C279.183 58.68 279.396 58.3238 279.498 58.1451C279.599 57.9662 279.785 57.6227 279.911 57.3818C280.037 57.1407 280.228 56.7463 280.337 56.5055C280.446 56.2643 280.611 55.8765 280.705 55.6432C280.798 55.41 280.951 54.9964 281.044 54.7245C281.137 54.4522 281.259 54.0706 281.315 53.8764C281.371 53.6819 281.461 53.3449 281.515 53.1272C281.569 52.9095 281.645 52.5723 281.685 52.3781C281.725 52.1836 281.789 51.8274 281.827 51.5865C281.866 51.3454 281.917 50.9765 281.94 50.7667C281.964 50.5566 281.999 50.1942 282.019 49.961C282.039 49.7167 282.054 49.0637 282.055 48.4203C282.055 47.7463 282.041 47.1411 282.019 46.8937C281.999 46.6681 281.958 46.2737 281.927 46.0173C281.896 45.7606 281.832 45.3281 281.785 45.0562C281.737 44.7839 281.661 44.3896 281.614 44.1798C281.568 43.9697 281.466 43.5582 281.388 43.2647C281.31 42.971 281.162 42.4748 281.06 42.1621C280.957 41.8492 280.794 41.383 280.696 41.1266C280.599 40.8702 280.436 40.4617 280.333 40.2189C280.231 39.9763 280.064 39.5986 279.962 39.3801C279.861 39.1613 279.686 38.8192 279.574 38.6199C279.462 38.4203 279.262 38.0791 279.13 37.8615C278.999 37.6438 278.745 37.2469 278.567 36.9795C278.389 36.712 278.072 36.2634 277.861 35.9824C277.65 35.7017 277.349 35.3164 277.191 35.1261C277.033 34.9358 276.756 34.6147 276.576 34.4126C276.396 34.2105 276.026 33.8223 275.752 33.5504C275.478 33.2781 275.108 32.9273 274.929 32.7704C274.751 32.6132 274.471 32.3735 274.307 32.2375C274.143 32.1012 273.818 31.8465 273.584 31.6712C273.351 31.4957 272.962 31.2186 272.72 31.0555C272.479 30.8921 272.058 30.6252 271.785 30.4621C271.512 30.299 271.072 30.0499 270.808 29.9083C270.543 29.767 270.105 29.5482 269.835 29.4224C269.565 29.2968 269.147 29.1125 268.908 29.0127C268.668 28.9132 268.296 28.7665 268.082 28.6865C267.866 28.6065 267.455 28.4779 267.167 28.4004C266.878 28.3229 266.413 28.2045 266.132 28.1369C265.852 28.0694 265.38 27.9628 265.084 27.9003C264.788 27.8378 264.272 27.7417 263.937 27.6866C263.602 27.6317 263.155 27.5673 262.945 27.5438C262.735 27.5201 262.327 27.487 262.04 27.47L261.517 27.4395L261.478 27.4912L261.44 27.543L261.397 27.4864L261.355 27.4299L261.314 27.4842L261.274 27.5384L261.222 27.4912C261.175 27.4494 261.076 27.444 260.357 27.444C259.744 27.444 259.545 27.4522 259.545 27.4779C259.545 27.5042 259.537 27.5042 259.511 27.4779C259.492 27.4593 259.47 27.4457 259.461 27.4482Z" fill="#00D5BE"/>
        <path id="path193477" d="M201.914 26.3184H196.331L173.343 77.4394L150.574 26.3184H144.772L170.497 83.4601H176.08L201.914 26.3184Z" fill="#F6F6F6" stroke="#F6F6F6" stroke-width="4.56112" stroke-miterlimit="2"/>
        <path id="path193475" d="M125.409 77.0015C122.234 78.3151 118.731 78.9719 115.119 78.9719C109.207 78.9719 104.281 77.4393 100.122 74.3742C95.962 71.3092 93.1158 67.1494 91.8022 61.895L140.077 52.4808C139.749 47.4454 138.545 42.9572 136.136 38.9069C133.728 34.8567 130.554 31.6821 126.613 29.3833C122.672 27.0845 118.184 25.8804 113.258 25.8804C107.894 25.8804 103.077 27.194 98.9176 29.6022C94.6484 32.12 91.3643 35.5135 88.9561 39.8921C86.5478 44.2708 85.4531 49.3063 85.4531 54.8891C85.4531 60.5814 86.6572 65.5074 89.175 69.8861C91.6928 74.2648 95.1957 77.7677 99.6838 80.176C104.172 82.6938 109.207 83.8979 115.009 83.8979C119.388 83.8979 123.438 83.1316 127.27 81.5991C130.882 80.0665 134.056 77.7677 136.574 74.5932L133.4 70.9808C131.21 73.7174 128.583 75.6879 125.409 77.0015ZM101.654 33.762C105.048 31.7916 108.879 30.6969 113.258 30.6969C116.98 30.6969 120.483 31.5727 123.548 33.2147C126.613 34.8567 129.021 37.1555 130.991 39.8921C132.852 42.7383 134.056 45.9128 134.604 49.3063L91.0359 57.8447C90.817 56.4217 90.817 55.327 90.817 54.4512C90.817 49.9631 91.6927 45.8034 93.6632 42.191C95.5241 38.5785 98.1513 35.7324 101.654 33.762Z" fill="#F6F6F6" stroke="#F6F6F6" stroke-width="4.56112" stroke-miterlimit="2"/>
        <path id="path193473" d="M68.8991 25.4429C65.3962 19.6412 60.5796 15.153 54.4495 11.7595C48.3193 8.47552 41.204 6.8335 33.3224 6.8335H3V11.869H32.8845C39.8904 11.869 46.13 13.292 51.6033 16.1382C56.9672 18.9843 61.127 22.9251 64.0826 27.8512C66.9287 32.8866 68.4612 38.6884 68.4612 45.1469C68.4612 51.715 66.9287 57.4073 64.0826 62.4427C61.127 67.4782 56.9672 71.419 51.6033 74.2652C46.13 77.1113 39.8904 78.4249 32.8845 78.4249H8.58281V45.1469H3V83.4604H33.3224C41.204 83.4604 48.3193 81.8184 54.4495 78.5344C60.5796 75.2504 65.3962 70.7622 68.8991 64.9605C72.2926 59.1587 74.0441 52.5907 74.0441 45.1469C74.0441 37.8127 72.2926 31.2447 68.8991 25.4429Z" fill="#F6F6F6" stroke="#F6F6F6" stroke-width="4.56112" stroke-miterlimit="2"/>
    </g>
</svg>
