<svg width="200" height="200" viewBox="0 0 200 200" fill="none" xmlns="http://www.w3.org/2000/svg">
<path d="M125 175L75 125V175H125Z" fill="#22232C"/>
<path d="M175 175L125 125V175H175Z" fill="#22232C"/>
<path d="M25 75L75 125L75 75L25 75Z" fill="#22232C"/>
<path d="M125 125L75 75L75 125H125Z" fill="#22232C"/>
<path d="M75 25H125V75L75 75L75 25Z" fill="#22232C"/>
<path d="M25 25H75L75 75L25 75L25 25Z" fill="#22232C"/>
<path d="M125 125C152.614 125 175 102.614 175 75C175 47.3858 152.614 25 125 25V75V125Z" fill="#22232C"/>
</svg>
