<svg width="150" height="150" viewBox="0 0 150 150" fill="none" xmlns="http://www.w3.org/2000/svg">
<path d="M144.968 59.324C144.968 37.6368 127.332 20.0001 105.644 20.0001H15.6108L41.3935 46.9553L63.9233 46.9805L53.1308 35.528H105.644C118.766 35.528 129.44 46.2028 129.44 59.324C129.44 72.4444 118.766 83.12 105.644 83.12H97.8553H83.2722H43.8842C39.6008 83.12 36.1202 86.6006 36.1202 90.8831C36.1202 95.1795 39.6008 98.6471 43.8842 98.6471H91.1522L120.576 129.997H141.895L111.96 98.1292C130.657 95.1145 144.968 78.8626 144.968 59.324Z" fill="white"/>
<path d="M44.22 114.472C31.1646 114.472 20.528 103.835 20.528 90.78C20.528 77.7107 31.1646 67.0871 44.22 67.0871H104.712C108.996 67.0871 112.476 63.6195 112.476 59.324C112.476 55.0406 108.996 51.56 104.712 51.56H44.22C22.5986 51.56 5 69.1578 5 90.78C5 112.402 22.5986 130 44.22 130H112.218L97.6481 114.472H44.22Z" fill="white"/>
</svg>
